<?xml version="1.0" encoding="utf-8"?>
<!-- Generator: Adobe Illustrator 24.1.0, SVG Export Plug-In . SVG Version: 6.00 Build 0)  -->
<svg version="1.1" id="Layer_1" xmlns="http://www.w3.org/2000/svg" xmlns:xlink="http://www.w3.org/1999/xlink" x="0px" y="0px"
	 viewBox="0 0 173.32 51.74" style="enable-background:new 0 0 173.32 51.74;" xml:space="preserve">
<style type="text/css">
	.st0{fill:#254183;}
	.st1{clip-path:url(#SVGID_2_);fill-rule:evenodd;clip-rule:evenodd;}
	.st2{clip-path:url(#SVGID_2_);fill-rule:evenodd;clip-rule:evenodd;fill:#FED57B;}
	.st3{clip-path:url(#SVGID_2_);fill-rule:evenodd;clip-rule:evenodd;fill:#FFFFFF;}
	.st4{clip-path:url(#SVGID_2_);fill-rule:evenodd;clip-rule:evenodd;fill:#B2B2B2;}
	.st5{clip-path:url(#SVGID_2_);fill-rule:evenodd;clip-rule:evenodd;fill:#E40037;}
	.st6{clip-path:url(#SVGID_2_);fill-rule:evenodd;clip-rule:evenodd;fill:#FBFBFC;}
	.st7{clip-path:url(#SVGID_4_);fill:url(#SVGID_5_);}
	.st8{clip-path:url(#SVGID_7_);fill-rule:evenodd;clip-rule:evenodd;fill:#FED57B;}
	.st9{clip-path:url(#SVGID_7_);fill-rule:evenodd;clip-rule:evenodd;fill:#FBFBFC;}
	.st10{clip-path:url(#SVGID_9_);fill:url(#SVGID_10_);}
	.st11{clip-path:url(#SVGID_12_);fill:url(#SVGID_13_);}
	.st12{clip-path:url(#SVGID_15_);fill:url(#SVGID_16_);}
	.st13{clip-path:url(#SVGID_18_);fill-rule:evenodd;clip-rule:evenodd;fill:#FFFFFF;}
	.st14{clip-path:url(#SVGID_20_);fill:url(#SVGID_21_);}
	.st15{clip-path:url(#SVGID_23_);fill-rule:evenodd;clip-rule:evenodd;fill:#FED57B;}
	.st16{clip-path:url(#SVGID_25_);fill:url(#SVGID_26_);}
	.st17{clip-path:url(#SVGID_28_);fill-rule:evenodd;clip-rule:evenodd;fill:#FFFFFF;}
	.st18{clip-path:url(#SVGID_28_);fill-rule:evenodd;clip-rule:evenodd;fill:#FED57B;}
	.st19{clip-path:url(#SVGID_28_);fill:none;stroke:#FED57B;stroke-width:0.0656;stroke-miterlimit:3.864;}
	.st20{clip-path:url(#SVGID_28_);fill-rule:evenodd;clip-rule:evenodd;fill:#FFEECE;}
	.st21{clip-path:url(#SVGID_28_);fill-rule:evenodd;clip-rule:evenodd;}
	.st22{clip-path:url(#SVGID_28_);fill:none;stroke:#FED57B;stroke-width:0.0656;stroke-linejoin:round;stroke-miterlimit:3.864;}
	.st23{clip-path:url(#SVGID_28_);fill-rule:evenodd;clip-rule:evenodd;fill:#B2B2B2;}
	.st24{clip-path:url(#SVGID_28_);fill-rule:evenodd;clip-rule:evenodd;fill:#E40037;}
	.st25{clip-path:url(#SVGID_28_);fill:none;stroke:#000000;stroke-width:0.2625;stroke-miterlimit:3.864;}
	.st26{clip-path:url(#SVGID_28_);fill-rule:evenodd;clip-rule:evenodd;fill:#DD2438;}
	.st27{clip-path:url(#SVGID_28_);fill-rule:evenodd;clip-rule:evenodd;fill:#0F549D;}
	.st28{clip-path:url(#SVGID_28_);}
	.st29{clip-path:url(#SVGID_28_);fill:none;stroke:#000000;stroke-width:0.3368;stroke-miterlimit:3.864;}
	.st30{fill:#003D85;}
	.st31{clip-path:url(#SVGID_30_);fill:#003D85;}
</style>
<rect x="66.26" y="18.81" class="st0" width="0.99" height="18.92"/>
<g>
	<defs>
		<rect id="SVGID_1_" x="-9.02" y="-6.6" width="69.52" height="67.37"/>
	</defs>
	<clipPath id="SVGID_2_">
		<use xlink:href="#SVGID_1_"  style="overflow:visible;"/>
	</clipPath>
	<path class="st1" d="M14.99,50.01l1.02,0.15c0,0,0.63-0.16,0.85-0.16c0,0,1.48-0.26,1.62-0.26l0.86,0.31c0,0,2.52-0.37,1.98-0.3
		c-0.05,0.01,1.36,0.49,1.36,0.49l0.4-0.09c0,0,1.22,0.2,1.43,0.2c0.05,0,0.29-0.06,0.34-0.06c0,0,1.94,0.1,2.28,0.1l0.45-0.22
		c0,0,1.22-0.05,1.19,0c-0.02,0.05,1.33,0.47,1.33,0.47l0.5-0.07c-0.23-0.01,0.36,0.07,0.59,0.07c0.36,0,0.58-0.03,0.94-0.03
		c0.22,0,0.39,0.01,0.6-0.05c0,0,0.32-0.23,0.37-0.24l0.46,0.06h0.98c0.08-0.04,0.3-0.15,0.2-0.15c-0.09,0,0.86,0.07,0.86,0.07
		c0.85-0.05,3.13,0.24,3.3,0.24l1.21-0.6c0.12,0,1.42-0.06,1.42-0.06s0.69-0.2,0.9-0.2c0.1,0,1.1,0.05,1.37,0.05
		c0.08,0,1.09-0.1,1.09-0.1l0.21-0.44c0.18-0.21,0.38-0.23,0.54-0.45c0.15-0.21,0-0.57,0.08-0.81c0.01-0.04,0.44-0.16,0.63-0.44
		c0.02-0.12-0.01-0.59-0.01-0.72c0-0.11,0.12-1.18,0.1-1.53c-0.03-0.63-0.16-1.72-0.16-1.72c-0.5-0.11-0.68-0.28-0.92-0.66
		c-0.33-0.52-0.6-0.87-1.09-1.33c-0.34-0.32-0.63-0.27-1.1-0.36l0.13-0.94c1.04-0.23,2.38-0.66,2.55-1.65l0.07-1.79
		c0.36-0.24,0.52-0.39,0.64-0.76c0.11-0.32,0.93-0.72,0.93-1.06c0-0.83-0.24-4.05-0.15-4.14c0.36-0.38,0.6-0.41,0.6-0.86
		c0-0.88-0.83-5.62-0.83-5.62c0.33-0.9,0.32-2.29,0.32-2.46c0-0.12,0-0.53-0.05-0.72c-0.06,0.01-0.09,0-0.12-0.01
		c0-0.1-0.07-0.29-0.07-0.52c0-0.55-0.06-1.13-0.15-1.73c-0.02-0.14-0.39-0.36-0.39-0.36s0.41-2.76,0.41-2.88
		c0-0.29-0.11-0.44-0.4-0.5c-0.47-0.1-0.58,0.43-0.58,0.57c0,0.13-0.17,1.44-0.17,1.44s-0.08,0.77-0.14,1.13
		c-0.01,0.05-0.83,0.25-0.62,0.75c-0.11-0.26-0.53,0.06-0.46,0.34c0.04,0.17,0.13,0.28,0.32,0.33c0.03,0.01-0.07,0.1-0.07,0.14
		c-0.01,0.07,0.04,0.31,0.04,0.38c0,0.04,0.08,0.07,0.08,0.07c-0.07,0.11,0.01,0.33,0.03,0.4c0.02,0.05,0.25,0.08,0.29,0.07
		c-0.02,0.2-0.12,1.14-0.14,1.13c-0.48-0.33-0.88-0.17-0.94-0.27c-0.27-0.47-0.54-0.5-0.81-0.73c-0.02-0.02-0.18-1.07-1.03-1.5
		c-0.53-0.27-0.69-0.18-1.28-0.31c-0.05-0.19-0.14-0.14-0.14-0.68v0.03c0.14-0.05,0.37-0.54,0.35-0.57
		c-0.06-0.11-0.15-0.16-0.21-0.28c-0.04-0.08-0.04-0.25-0.08-0.35c-0.02-0.07-0.08-0.11-0.08-0.18l-0.01-0.13
		c0.16-0.03,0.19-0.15,0.29-0.29c0.18-0.26-0.04-0.16-0.24-0.39c0-0.12-0.38-0.87-0.39-0.99c-0.02-0.44-0.12-0.47-0.51-0.65
		c-0.11-0.06-0.28-0.14-0.4-0.14l-0.53-0.08h-0.4c-0.14,0-0.24,0.05-0.38,0.05c-0.09,0-0.19,0.02-0.29,0.05
		c-0.05,0.02-0.23,0.38-0.27,0.41c-0.09-0.08-0.34,0.29-0.51,0.44c-0.02,0.33-0.32,1.39-0.32,1.39l-0.49,0.99
		C36.84,18,37.19,18,37.29,18.3c0.07,0.22,0.3,0.28,0.09,0.5c-0.24-0.69-0.87-0.52-0.97-0.46c0.13-0.22-0.06-0.47-0.01-0.54
		c0.35-0.46,0.13-1.05,0.13-1.06c0.45-0.63-0.12-1.09-0.1-1.1c0.37-0.23-0.04-1.03-0.14-0.96c0.4-0.3,0.95-0.86,1.78-0.86
		c0.7,0,0.56,0.34,0.88,0.38c0.5,0.04,0.98-0.28,1.01-0.65c0.02-0.25-0.06-0.38-0.06-0.38c0.62,0,0.75,0.06,1.44,0
		c2.05-0.2,2.42-1.24,2.44-1.67c0.05-1.15-0.75-1.42-1.23-1.5c0.31,0.7,0.1,1.28-0.69,1.47c-0.01,0,0.62,0.05,0.67,0.25
		c0.03,0.19-0.16,0.45-1.41,0.5c0,0-1.35-0.05-1.68-0.07c-0.94-0.05-1.97,0.22-3.67,1.42c0.11-0.08,0.38-0.6,0.67-0.69
		c0.1,0.08-0.01,0.16,0.06,0.15c0.18-0.07,0.24-0.22,0.2-0.41c0.05-0.06,0.14-0.08,0.19-0.12c0.18,0.13,0.03,0.24,0.12,0.24
		c0.2-0.09,0.25-0.26,0.19-0.48c0.14-0.08,0.19-0.11,0.27-0.15c0.16,0.15-0.02,0.33,0.08,0.34c0.26-0.08,0.38-0.3,0.36-0.56
		c0.06-0.02,0.19-0.09,0.25-0.11c0.19,0.24-0.09,0.41,0.03,0.44c0.31-0.04,0.51-0.3,0.52-0.6c0.06-0.02,0.21-0.08,0.3-0.09
		c0.21,0.3-0.1,0.54,0.03,0.58c0.36-0.04,0.61-0.4,0.63-0.76c0.29,0,0.47,0.07,0.67,0.25c0.23-0.15,0.61-0.32,0.52-1.19
		c-0.03-0.32-0.47-1.2-1.38-1.08c-0.38,0.05-0.38,0.25-0.4,0.67c-0.34-0.18-0.28,0.08-0.45,0.15c-0.1,0.04-0.23-0.25-0.41,0.13
		c-0.22-0.17-0.29-0.12-0.41,0.05c-0.06-0.35-0.31-0.51-0.66-0.51c-0.23,0-0.28,0-0.51,0.07c-0.21,0.07-0.75-0.14-1.04-0.45
		c-0.09,0.29-0.06,0.63-0.24,0.63c-0.23,0-0.88,0.05-1.29-0.02c-0.07,0.22,0.09,0.69,0.26,0.85c-0.35,0.01-0.69,0.1-0.96,0.03
		c0.11,0.61,0.45,0.97,0.89,1.17C34,12.63,34,13.92,33.35,14.16c0.23,0.19,0.79-0.06,0.8-0.12c-0.09,0.63-0.68,0.86-1.1,1.14
		c0.39,0.07,0.8,0.16,0.76,0.47c-0.02,0.13-0.19,0.36-1.05,0.57c0.09-0.02,0.5,0.48,0.35,0.61c-0.16,0.13-1.28-0.21-1.28-0.21
		c0.09,0.11,0.23,0.49,0.26,0.65c0,0-0.24-0.09-0.4-0.27c-0.44-0.51-1.42-0.38-1.42-1.28c0-0.29,0.05-0.37,0.24-0.29
		c0.38,0.15,0.38,0.64,0.59,0.68c0.2,0.04,0.8-0.1,1.08-0.42c0.4-0.47,0.51-1.34,0.52-1.34c2.32-0.5-2.12-8.91,1.45-10.31
		c0.09-0.04-1.74-1.68-4.03,2.66c-0.58-1.1-1.96-3.83-0.89-5.54c-0.84-0.35-2.3,0.35-2.37,3.47c-0.01,0.33-0.16,0.95-0.32,1.23
		c-0.2,0.36-0.5,0.76-0.63,0.76c0,0-0.07-0.17-0.2-0.27c-0.02-0.02-0.48,0.16-0.48,0.17c0.63-2.7,0.11-3.26,0.11-3.26
		c-0.28,0.01-0.6,0.3-0.6,0.3c0.16-2.06-1.07-2.69-1.63-2.55c-0.11,0.03-0.53,0.18-0.5,0.28c0.08,0.21,0.68,2-0.67,4.52
		c0,0-0.05-0.47-0.59-0.99c-0.05-0.03-0.6,0.32-0.81,0.88c-0.27-2.06-1.9-1.97-2.01-1.94C18.36,3.77,17.95,4,18.06,4.28
		c0.96,0.59,1,1.42,0.47,3.95c-0.2-0.11-0.37-0.17-0.46-0.11c0.01,0.03,0.27,1.4,0.06,2.45c0,0-0.48-0.21-0.55-0.15
		c-0.04,0.02,0,0.3,0,0.34c0.11,0.58,0.13,1.38,0.13,1.58c0,1.08,0.23,1.04,1.1,2.3c0.53,1.42,0.52,1.61,1.53,1.67
		c0.38,0.02,0.77-0.45,0.71-0.93c0.06-0.01,0,0,0.06,0c0.3,0,0.37,0.12,0.34,0.42c-0.08,0.67-0.66,0.54-1.17,0.92
		c-0.75,0.58-0.96,1.21-1.68,1.41c0.07-0.47-0.23-0.63-0.48-0.63c-0.04,0-0.09,0.13-0.12,0.15c-0.27,0.29-1.09,0.21-0.79,0.14
		c0.42-0.09,0.91-0.25,0.93-0.94c0.01-0.26-0.34-0.7-0.6-0.7c-0.17,0-0.15,0.11-0.15-0.13c0-0.09-0.57,0.38-0.51-0.26
		c0.01-0.16-0.05-0.12-0.05-0.28c0.09,0.09,0.2,0.11,0.29,0.1c0.36-0.02,0.58-0.33,0.63-0.62c0.04-0.22-0.05-0.54-0.21-0.69
		c-0.22,0.65,0.02-0.19-0.13-0.48c-0.14,0.03-0.38,0.14-0.42-0.1c-0.02-0.16-0.02-0.12,0-0.3l0.07-0.33
		c0.71,0.03,0.48-0.9,0.23-1.08c-0.08-0.06-0.27,0.75-0.55-0.31c-0.29-1.11-0.77-1.67-1.09-1.88c-0.35-0.22-0.61-0.32-1.03-0.32
		c-0.18,0-0.3-0.06-0.43,0.07c-0.11-0.1-0.61,0.11-0.78,0.12c-0.21,0.02-0.63-0.11-0.99-0.11c-1.4,0.02-1.55,2.29-0.48,2.19
		c0.04-0.23,0.42-0.48,0.65-0.48c0.51,0,0.63,0.22,0.85,0.75c0.06-0.01-0.68-0.02-0.68-0.02c-0.35,0-0.47,0-0.82,0
		c-0.09,0-0.15,0.03-0.24,0.03c-0.07,0-0.45,0.03-0.61,0.03c-0.36,0-0.57,0.04-0.92,0c-1.07-0.1-1.33-0.61-1.27-0.88
		c0.12-0.51,0.75-1.03,0.75-1.03c-1.55-0.14-1.92,1.16-1.94,1.42c-0.09,1.45,1.31,1.87,2.77,1.65c0.19-0.03,1.36-0.4,2.22-0.4
		c0,0-0.59,0.31,0.11,1.1c0.08-0.28,0.26-0.97,1.13-0.25c0.19,0.33,0.15,0.63,0.15,1.01c0,1.18-0.42,0.43-0.22,0.2
		c0.08-0.09-1.07-0.15-1.05,0.63c0,0.23,0.16,0.42,0.3,0.42c-0.19,0-0.5,0.07-0.53-0.1c-0.02-0.19,0.02-0.3,0.07-0.46
		c0,0-0.12-0.1-0.29-0.13c-0.48-0.09-0.63,0.55-0.48,0.64c-0.86-0.5-1.4,0.25-1.44,0.62c-0.08,0.69,0.56,0.99,0.92,0.94
		c0.19-0.02,0.46-0.21,0.55-0.38c-0.12-0.07-0.31-0.12-0.31-0.26c0-0.24,0.25-0.26,0.35-0.21c0,0-0.03,0.12-0.03,0.15
		c0,0.22,0.36,0.48,0.59,0.45c0.17-0.02,0.3-0.27,0.44-0.4c-0.1,0-0.2-0.06-0.15-0.15c0.06-0.11,0.12-0.08,0.47-0.14
		c-0.28,0.34-0.42,0.42-0.49,0.86c-0.03,1.57-0.81,0.69-0.89,0.66c-0.5,1.33,0.84,1.51,0.84,1.51c0.01,0.48,0.3,0.96,0.08,1
		c0.03-0.58-0.65-0.6-0.68-0.57c-0.68-0.79-1.47,0.02-1.37,0.39c-0.95-0.49-1.97,0.87-0.87,1.79c0.09-0.26-0.08-0.72,0.43-0.49
		c-0.02,0.08-0.16,0.13,0.08,0.45c-1.26,0.23-0.7,2.08,0.43,1.8c0.05-0.01-0.51-0.73,0.01-0.54c0,0.19,0.07,0.22,0.26,0.22
		c0.17,0,0.33-0.14,0.45-0.1c0.25,0.09,0.17,0.04,0.41,0c0.12-0.02,0.13,0.12,0.37,0.05c0.11-0.03,0.12-0.07,0.12,0.01
		c0,0.15-0.1,0.27-0.1,0.42c0,0.06,0,0.38,0.24,0.38c0.11,0-0.14,0.19-0.55,0c-0.13,0.21-0.14,0.59,0.15,0.8
		c-0.27,0.06-1.99,1.46-1.79,1.49c0.06,0.01-0.07,0.53-0.44,0.8c-0.75-0.63-0.79-0.87-0.97-1.67c-0.3-0.34-1.14,1.17-0.35,2.46
		l0.15,0.23c-0.14,0.1-2.1,1.84-3.27,1.41c-0.35-0.13-1.89-2.33-3.77-1.82c-0.11,0.03-0.46,0.15-0.46,0.32
		c0,0.25,1.02,0.75,1.39,1.3c0.47,0.71,1.48,2.74,3.03,2.84c0,0,0.09-0.02,0.08,0.04c-1.32,0.03-1.48,0.72-2.09,0.97
		c0.01,0.34,0.91,1.53,2.41,1.39c0.14,0.24,0.42,1.21,1.05,1.23c0,0,0.16,0.56,0.4,1.14c0.18,0.42,0.18,0.53,0.28,0.98
		C7.9,38.41,7.54,39,7.6,39.05c0.15,0.22,0.28,0.32,0.37,0.44c0.1,0.13-0.02,0.39,0.04,0.57c0.04,0.11,0.48,0.41,0.69,0.39
		c0.28-0.02,0.71-0.25,1.22-0.25c0.36,0,0.54,0.03,0.9,0.03c0.3,0,0.76-0.02,1.08-0.32c0.1,0.08,0.17,0.09,0.31,0.12l-0.13,0.25
		c-0.54,0.31-2.11-0.05-2.15,0.38c-0.29,0-0.55,0.06-0.83,0.14C8.73,40.91,7.84,41,7.67,41c-0.28,0-0.5,0.09-0.5,0.37
		c0,0.2-0.11,0.35-0.11,0.55c-0.33,0.39-0.69,0.49-0.69,1l0,0.53c-0.28,0.03-0.76,0.59-0.76,0.67c0,0.36-0.16,0.46-0.16,0.82
		c0,0.4,0.03,1.04,0.08,1.44l0.13,1.06l-0.01,0.32c0.04,0,0.05,0.62,0.09,0.62c0.48-0.02,0.28,0.47,0.45,0.63
		c0.21,0.19,0.66,0.25,0.66,0.25s0.17,0.31,0.37,0.35c0.17,0.02,0.35,0.04,0.51,0.05c1.2,0.09,1.33-0.2,1.33-0.2
		c0.06,0,1.37,0.51,1.37,0.51s0.82-0.2,0.91-0.16l0.45,0.25c0.18,0.01,1.14,0.14,1.28,0.15"/>
	<path class="st2" d="M17,23.87c-0.99,0.03-1.86,0.09-2.38,0.2c-0.27-0.21-0.69-0.59-1-1.02c-0.21-0.18-0.88,0.25-0.86,0.27
		c0.01,0.01,0.88-0.45,0.99,0.32c0.02,0.05,0.04,0.2,0.05,0.27c0.01,0.04,0,0.09-0.04,0.12c-0.03,0.03-0.44-0.07-0.59-0.07
		c-0.25,0-0.26,0.14-0.52,0.16c-0.05-0.05-0.09-0.08-0.09-0.19c0-0.05,0-0.12,0.01-0.18c0.01-0.05,0.04-0.1,0.04-0.13
		c0.02-0.16,0.03-0.26,0.09-0.42c-0.08,0.03-0.19-0.08-0.27-0.03c-0.08,0.06-0.36,0.04-0.42-0.03c-0.43,0.13-0.48-0.06-0.56-0.04
		c-0.06,0.02-0.24,0.11-0.31,0.11c-0.28,0-0.26-0.24-0.26-0.52v-0.45c0-0.15,0.17-0.16,0.31-0.14c0.06,0.01,0.23,0.12,0.29,0.08
		c0.01-0.01,0.15,0,0.25,0c0.08,0,0.28,0.07,0.36,0.13c0.07-0.04,0.06-0.06-0.03-0.11c-0.14-0.17-0.48-0.27-0.53-0.24
		c-0.19-0.15-0.24-0.13-0.43-0.13c-0.09,0-0.25,0.17-0.28,0.2c-0.06,0.05-0.19-0.21-0.19-0.29c0-0.4,0.26-0.73,0.66-0.73
		c0.13,0,0.17,0.04,0.26,0.13c0.06,0.05,0.04,0.1,0.12,0.15c0.03,0.02,0.18,0.09,0.2,0.11c0.07,0.06,0.11,0.11,0.17,0.17
		c0.02,0.02,0.17,0.12,0.19,0.14c0.03,0.03,0.14,0.09,0.25,0.25c0.02,0.01,0.22,0.19,0.26,0.22c0.08,0.08,0.15,0.14,0.15,0.02
		c0-0.2-0.15-0.07-0.2-0.26c-0.03-0.11-0.17-0.31-0.36-0.38c-0.05-0.16-0.26-0.32-0.35-0.37c-0.06-0.03-0.38-0.23-0.23-0.47
		c0.02-0.03-0.12-0.17-0.26-0.16c-0.13,0-0.31,0.03-0.37,0.2c-0.01-0.01-0.05-0.06-0.07-0.07c0.11-0.91,0.67-0.77,0.97-0.62
		c0.03,0.02-0.24,0.04-0.42,0.38c-0.01,0.02,0.1,0.04,0.12,0.07c0.04,0.02,0.27-0.39,0.56-0.34l0.2,0.09l0.04,0.25
		c-0.01-0.05,0.08,0.07,0.19,0.12l0.14,0.13c0,0,0.2,0.18,0.14,0.41c-0.07,0.19-0.29,0.32-0.38,0.38c-0.04,0.03,0.03,0.02,0.01,0.04
		c0.03,0.01,0.08,0.03,0.11,0.04c0.04,0.01,0.35,0.03,0.48-0.03c0.03,0.04,0.52-0.21,0.53-0.18c-0.12,1.04,0.12,1.17,0.48,1.07
		c-0.01,0.02,0.31-0.12,0.38,0.01c0.11,0.07,0.7,0.67,0.74,0.7c0.02,0.01,0.28,0.11,0.36,0.15c0.02,0.01,0.17,0.08,0.21,0.09
		C16.17,23.54,16.79,23.82,17,23.87"/>
	<path class="st3" d="M17.07,23.87l-0.43-0.28c-0.09-0.11-1.09-0.48-1.14-0.44c0,0,0.46-0.37-0.16-1.12
		c0.79-0.64,0.17-1.06,0.02-1.29l0,0.03c0.33,0.54,0.11,0.82,0.08,0.89c0,0,0.01,0.13,0.01,0.11c0-0.27-0.2-0.47-0.37-0.68
		c-0.15-0.18-0.3-0.15-0.33-0.46c-0.03-0.06-0.07,0-0.06,0.06c0.12,0.54,0.37,0.19,0.59,1.1c0.03,0.12-0.01,0.18-0.01,0.3
		c-0.05-0.09,0.17,0.21,0.17,0.63l-0.02,0.24c-0.29-0.42-0.5-0.43-0.66-0.84c0.07-0.17,0.07-0.26,0.07-0.46
		c0-0.28-0.09-0.51-0.23-0.76l0.1,0.53c0.06,1.01-0.74,0.85-0.74,0.85c0.08-0.32,0.17-0.49-0.01-1.07c0.16-0.5,0.05-0.89,0.05-1.41
		c0.22,0.3,0.64,0.55,0.97,0.57c-0.08-0.24-0.11-0.47-0.11-0.72c0-0.39,0.15-0.59,0.15-0.98c0-0.09,0-0.14,0-0.23
		c-0.12,0.54-0.38,0.81-0.38,1.37c0,0.13,0,0.2-0.03,0.18c-1.05-0.82-0.51-1.81-0.49-2.13c-0.14,0.24-0.57,1.1-0.24,1.69
		c0,0,0.31,1.87-0.85,1.9c0.09-0.12,0.16-0.06,0.24-0.73c0.02-0.21-0.27-0.68-0.08-1.48c0.64-0.54,0.38-1.2,0.77-1.69
		c-0.64,0.26-0.25,1.52-1.13,1.62c-0.15,0.02-0.2,0-0.34-0.05c-0.16-0.05-0.39-0.25-0.29-0.67c0.11,0.04,0.25,0.17,0.37,0.17
		c0.59,0,0.42-0.96,0.67-1.51c0.29-0.66,0.73-0.89,0.46-0.84c-0.38,0.06-1.18-0.02-1.18,0.36c0,0.1,0.06,0.14,0.15,0.18
		c-0.1,0.04-0.13,0.12-0.24,0.09c-0.46-0.12,0-0.57,0-0.57c-0.29,0.03-0.43-0.01-0.69,0.03c-0.23,0.04-0.44,0.23-0.44,0.46
		c0,0.12,0.32,0.22,0.32,0.22c-0.07,0.04-0.19,0.08-0.26,0.07c-0.9-0.19-0.34-1.17,0.23-1.13c0.37,0.02,0.58,0.07,0.79,0.15
		c-0.21-0.07-0.27-0.24-0.28-0.41c0-0.11,0.12-0.3,0.34-0.2c0,0-0.07,0.09-0.06,0.23c0.02,0.24,0.25,0.34,0.49,0.36
		c0.17,0.02,0.81-0.08,0.81-0.08c-0.31-0.2-0.53-0.2-0.55-0.48c-0.03-0.28,0.19-0.49,0.46-0.45c0,0.07,0,0.13,0,0.2
		c0,0.18,0.13,0.3,0.33,0.32c0.48,0.04,0.57-0.54,0.57-1.11c0-0.15,0-0.26,0-0.42c0.2,0.28,0.35,0.35,0.43,0.48
		c0.07-0.16,0.18-1.31,0.16-1.67c-0.02-0.43-0.29-0.52-0.48-0.96c-0.08-0.17-0.32-0.6-0.32-0.8c0-0.19,0.16-0.23,0.32-0.34
		c0.02-0.01,0.03,0.02,0.05,0.03l-0.02,0.5c-0.04,0.04-0.1,0.18-0.12,0.23c0.16,0.03,0.2-0.07,0.33,0.03
		c0.13,0.1,0.49,0.29,0.97-0.14c0.11,0.09,0.38,0.43,0.45,0.4c-0.01-0.03-0.2-0.38-0.32-0.55c-0.15-0.19-0.61-0.53-1.37-0.72
		c-0.12-0.03-0.32-0.24-0.32-0.48c0-0.18,0.13-0.3,0.32-0.3c0.32,0,1.23,0.11,1.79,1.76c0.06,0.18,0.23,0.59,0.43,0.82
		c0.07,0.09,0.4,0.36,0.43,0.04c0.01-0.13,0.17,0.06,0.12,0.19c-0.17,0.42-0.54,0.1-0.54,0.16c0.01,0.35-0.12,0.42-0.12,0.75
		c0,0.18,0.09,0.54,0.52,0.48c0,0,0.05,0.39-0.2,0.49c-0.16,0.06-0.4-0.06-0.4-0.06c0,0.23,0.15,0.4,0.37,0.44
		c0.23,0.04,0.42,0.04,0.47-0.14c0,0.04,0.11,0.31-0.16,0.44c-1.1,0.51-1.07-1.59-1.07-1.41c0,0.5-0.04,0.73-0.32,0.94
		c-0.04-0.14-0.08-0.21-0.08-0.35c0-0.29,0.02-0.44,0.02-0.74c0-0.29-0.12,0.03-0.15,0.15c-0.03,0.17-0.04,0.64-0.04,0.75
		c0,0.28,0.1,0.35,0.23,0.61c0.36-0.51,0.63,0.29,0.63,0.49c0,0.37,0.25,0.62,0.61,0.65c-0.04,0.12-0.16,0.17-0.29,0.17
		c-0.12,0-0.19-0.05-0.29-0.11c0.02,0.24,0.2,0.32,0.41,0.44c0.15,0.09,0.69,0.05,0.47-0.36c0.05-0.02,0.55,0.03,0.51,0.48
		c-0.03,0.34-0.28,0.49-0.61,0.59c-0.3,0.09-0.72-0.08-0.69-0.01c0.05,0.11,0.08,0.18,0.17,0.29c0.14,0.18,0.3,0.28,0.52,0.33
		c0.52,0.11,0.98-0.29,0.91-0.38c0,0,0.19,0.15,0.19,0.33c0,0.32-0.35,0.52-0.67,0.52c-0.55,0-0.87-0.22-0.78-0.07
		c0.23,0.35,0.34,0.37,0.53,1.02c-0.09,0.02-0.7-0.1-0.7-0.1c0.17,0.19,0.39,0.51,1.05,0.34c-0.09-0.58-0.44-0.9-0.49-1.06
		c0.21,0.08,0.33,0.13,0.49,0.09c0.31-0.06,0.35-0.14,0.53-0.24c0.59-0.06,0.69-0.34,1.11-0.65c0.34-0.25,0.61-0.56,0.93-0.83
		c0.62-0.52,1.41-0.59,1.41-1.4c0-0.34-0.17-0.49-0.67-0.62c0.03,0-0.89-0.19-0.63,0c0.14,0.1,0.23,0.29,0.21,0.46
		c-0.03,0.27-0.25,0.5-0.5,0.46c-0.43-0.06-0.63-0.11-0.74-0.42c-0.35-0.99-0.66-2.11-0.46-3.29c0.24-1.33,0.11-1.76,0.11-1.76
		c0.93,0.44,1,1.65,0.79,2.24c0.85-1,0.95,0.46,0.97,0.44c0.1-0.12,0.84-0.48,0.79,0.45c0.07-0.04,0.92-0.19,0.69,0.63
		c0.21,0.05,0.72-0.07,0.43,0.76c0.23,0.09,0.55,0.42,0.16,0.89c0.09,0.21,0.67,0.45-0.29,0.92c-0.09,0.05,0.63,0.65-0.56,0.77
		c0.01,0.04,0.48,0.8-0.63,0.66c-0.11-0.01,0.46,0.64-0.77,0.51c0,0.11-0.21,0.63-0.74,0.48c0,0.22-0.22,0.49-0.4,0.49
		c-0.19,0-0.4-0.05-0.37,0.01c0.12,0.31-0.44,0.71-0.88,0.18c0.03,0.38-0.6,0.38-0.39,0.48c0.12,0.04,0.28,0.48,0.25,0.99
		c-0.83-0.18-0.94-0.5-1.68-1c-0.16,0,0.15,0.4,0.48,0.65c0.58,0.46,1.32,0.62,1.32,0.58c0.03-0.63-0.03-0.82-0.1-1.09
		c0.27,0.44,0.89,1.13,1.49,1.13c0.26-0.43,0.28-0.87,0.11-1.16c0.24,0.41,0.47,0.47,0.84,0.62c-0.09,0.12-0.11,0.03-0.14,0.22
		l-3.27,0.54L17.07,23.87z"/>
	<path class="st2" d="M9.96,30.73c-0.14,1.04,1.9,1.29,1.84-0.16c-0.09-1.84-2.23-2.92-2.62-3.44c-0.3-0.4-0.27-0.83-0.4-0.71
		c-0.11,0.09-0.11,0.36-0.11,0.55c0,1.27,1.32,1.74,1.32,3C9.99,30.16,10,30.45,9.96,30.73"/>
	<path class="st4" d="M6.15,32.22c0.15,0.44,0.57,1.33,0.57,1.68c0,0.38-0.23,0.83-0.17,0.97c0.51,1.3,0.85,0.49,1.02,1.08
		c0.07,0.24,0.72,2.19,0.72,2.38c0,0.19-0.26,0.45-0.26,0.64c0,0.19,0.25,0.41,0.49,0.43c-0.06-0.05-0.15-0.21,0.06-0.33
		c0.25-0.06,0.48,0.1,0.45,0.33c-0.04,0.26-0.39,0.23-0.66,0.11c-0.02,0.14-0.06,0.39,0.01,0.44l0.27,0.14l0.99-0.29
		c0.33,0.03,0.75,0.03,1.08,0.03c0.57,0,0.78-0.08,1.18-0.52c0.11-0.59,0.05-0.81-0.02-0.94c-0.02-0.05-0.16-0.23-0.29-0.36
		c-0.02-0.09,0.06-0.12,0.11-0.09c0,0,0.23,0.31,0.36,0.24c0.27-0.15,0.83-0.57,0.88-0.66c0-0.05,0.04-2.46,0.04-2.58
		c0-0.04-0.19-1.33-0.4-1.78c0.01-0.02-0.35-0.1-0.38-0.15c-0.07-0.16-0.08-0.17-0.08-0.17c0.45,0.04,1.06,0.07,1.51,0.04
		c0.51-0.03,0.65-0.46,1.39-0.86c-0.5-0.51-0.83-0.91-1.08-0.96c-0.34-0.07-1.16,0.01-1.56,0.26c-0.25,0.15-0.05-0.12-0.05-0.12
		c0.2-0.22,0.76-0.58,1.46-0.56c0.59,0.01,0.84,0.64,1.72,1.41l-0.16,0.24c-0.6,0.07-0.51,1.32-2.44,1
		c0.08,0.33,0.39,1.06,0.39,1.39c0,0.34,0.06,0.92,0.06,1.13c0,0.4-0.04,1.31-0.04,1.71c0,0.19-0.79,0.82-1.18,0.95
		c-0.1,0.03,0.15-0.02,0.15,0.25c0,0.13-0.02,0.43-0.04,0.6c-0.03,0.18-0.12,0.21-0.2,0.32c0.02,0.02,0.07,0.04,0.08,0.07
		c0.67,0.41,1.06,0.5,1.69,0.97c0.58,0.44,0.54,1.11,1.28,1.11c0.06,0,0.6,0,0.65-0.03c-0.42-0.51-1.12-1.1-1.47-1.64
		c-0.26-0.4-0.52-0.08-0.95-0.36c0.08,0.01,0.02-0.28,0.4-0.24c1.41,0.15,3.13,2.77,3.05,2.59c-0.1-0.31-0.68-1.23-0.56-1.07
		c0.2,0.27,0.24,0.18,0.41,0.47c0.21,0.35,0.14,0.21,0.35,0.55l0.22-0.92l-0.71-0.97v-2.11v-0.29v-0.08v-0.25v-0.24v-0.36V26.07
		c-0.01,0.12,0.34-2.02,0.32-1.9c-0.13-0.14-0.65,0.08-0.83,0.08c-1.56,0-2.33,0.56-3.71,1.28c-0.57,0.3-1.51,1.2-1.43,1.19
		c0.09-0.01-0.08,0.6-0.58,0.95c0.07,0.07,0.73,0.54,1,0.91c0.34-0.19,0.89,0.56,0.85,0.41c-0.13-0.55-0.2-1-0.15-1.06
		c0.07-0.09,0.59,0.3,0.55,0.26c0.35,0.29-0.31-0.86-0.24-0.84c-0.07-0.02,0.16,0.01,0.17-0.03c0,0,0.16-0.75,0.14-0.72
		c0.04-0.06,0.7,0.39,0.92,0.56c0.07,0.05,0.09-0.31,0.09-0.52l0.44,0.16c0.06,0.02-0.08-0.5-0.06-0.52
		c0.03-0.03,0.51,0.07,0.7,0.21c0.09-0.25-0.02-0.46,0.1-0.41c0.14,0.06,0.5,0.3,0.5,0.36c0-0.12,0.04-0.55,0.04-0.81
		c0.2,0.09,0.16,0.35,0.38,0.36c0.01-0.19,0.06-0.56,0.05-0.71c0.26,0.07,0.22-0.01,0.48,0.07l-0.11-0.54
		c0.09,0,0.14,0.01,0.23,0.01l-0.01,0.83c-0.19-0.2-0.46,0.56-0.44,0.63c0,0-0.13,0.11-0.35-0.02c0.02,0.23-0.17,0.78-0.14,0.82
		c-0.28-0.37-0.48-0.54-0.46-0.54c-0.03,0.01-0.13,0.32-0.04,0.62c-0.03-0.1-0.24-0.25-0.65-0.59c0.09,0.27,0.09,0.77,0.15,0.81
		c-0.23-0.16-0.56-0.31-0.57-0.21l-0.17,0.73c0,0.13-0.86-0.88-0.85-0.86c-0.07-0.12,0.44,1.09,0.43,1.07
		c0.08,0.15-0.58-0.34-0.58-0.34c-0.11-0.06,0.43,1.11,0.44,1.08c-0.01,0.15-0.89-0.75-0.9-0.54c-0.01,0.17,0.31,1.56,0.31,1.56
		c0.02,0.04-0.92-0.8-0.98-0.89c1.7,2.5-0.34,3.06-0.76,3.04c-1.34-0.04-1.33-1.37-1.22-1.8c0.16-0.62-0.52-1.44-0.52-1.44
		c-1.19,0.96-1.9,1.12-2.82,1.64c0.07-0.04,0.04,0.6-0.4,0.85c0.44-0.25,0.59-0.17,0.65-0.19c-0.47,0.24,0.17,0.64,0.36,1.14
		l0.24-0.51c0.38,0.14,0.64,0.08,0.84,0.38c-0.03-0.31-0.02-0.75,0.09-1.05c0.22,0.47,0.32,0.73,0.63,0.84
		c0.14-0.13-0.01-0.99-0.07-1.01c0.73,0.33,0.36,1.5,0.18,1.83c0,0-0.27-0.61-0.55-0.68c0,0.4,0.08,0.83-0.22,1.1
		c0-0.44-0.18-0.87-0.77-0.83c-0.05,0.45-0.35,1.3-0.35,0.98c0-0.23-0.59-1.28-0.59-1.38L6.15,32.22z"/>
	<path class="st2" d="M5.95,31.47c-0.42,0.14-0.62-0.02-0.67-0.1c0.19-0.17,0.37-0.32,0.52-0.54c0.06-0.08-0.35-0.21-0.39-0.3
		c0.17,0,0.63-0.22,0.21-0.19c-0.46,0.03-0.85-0.62-1.27-0.98c-0.72-0.64-1.2-1.03-2.15-1.03c-0.38,0-0.44,0.15-0.28,0.22
		c0.33,0.14,0.51,0.29,0.92,0.75c0.41,0.45,1.49,2.74,2.75,2.81C5.73,32.11,5.9,31.58,5.95,31.47"/>
	<path class="st2" d="M36.38,10.09c-0.25,0-0.47-0.07-0.6-0.17c-0.04-0.03-0.08,0.31-0.17,0.37l-1.1-0.02
		c-0.02,0.05,0.09,0.42,0.27,0.63c-0.29,0.12-0.6,0.15-0.97,0.15c-0.05,0.17,0.58,0.93,0.72,0.75
		C34.91,11.34,35.73,10.4,36.38,10.09"/>
	<path class="st4" d="M37.63,10.49c-0.08-0.24-0.34-0.32-0.6-0.34c-0.78-0.04-1.77,1.11-2.04,1.41c0.45-0.11,0.58-0.3,0.92-0.5
		C37.18,10.33,37.57,10.83,37.63,10.49"/>
	<path class="st2" d="M34.32,14.2c0.07,0.45-0.51,0.83-0.72,0.85c0.32-0.03,0.51,0.37,0.5,0.56c-0.03,0.42-0.65,0.68-0.87,0.7
		c0.18-0.02,0.31,0.48,0.22,0.65c-0.13,0.24-0.25,0.21-1.11,0.08c0.01,0.05,0.08,0.32,0.15,0.49C32.67,17.92,34.78,17.04,34.32,14.2
		"/>
	<path class="st3" d="M36.69,11.12c0.02-0.1,0.25-0.17,0.23,0.03c-0.07,0.76-1.06,0.5-1.1,0.28c0.21-0.21,0.57-0.28,0.57-0.28
		c0.16,0.09,0.09,0.42,0.09,0.42C36.61,11.5,36.69,11.27,36.69,11.12"/>
	<path class="st4" d="M32.67,13.93c1.23,0-0.88-6.12-0.17-8.36c0.18-0.55,0.41-1.11,1.09-1.43c0.24-0.24-1.24-0.38-2.28,1.2
		c-0.28,0.42-0.74,1.18-1,1.64c0,0,2.04,3.13,2.37,5.59C32.67,12.57,32.79,13.93,32.67,13.93"/>
	<path class="st2" d="M35.95,14.54c-0.15,0.13-0.43,0.11-0.56,0.01c-1.26-1.91,3.05-3.25,3.86-4c0.1-0.31-0.11-1.02,0.19-1.04
		c0.68,0,1.14,0.46,1.14,1.13c0,0.25-0.03,0.47-0.23,0.5c-0.15,0.02-0.37-0.2-0.59-0.17c-0.46,0.08-4.04,1.11-4.17,2.78
		c-0.02,0.25,0.36,0.73,1.18-0.13c0.81-0.78,2-0.59,2.15-0.57c0.45,0.06,0.73,0.16,0.67,0.46c-0.08,0.24-0.29,0.29-0.54,0.29
		c-0.2,0-0.24-0.03-0.39-0.15c-0.27-0.2-0.4-0.18-0.74-0.17c-0.41,0.01-0.76,0.15-1.24,0.45C36.4,14.13,36.25,14.29,35.95,14.54"/>
	<path class="st4" d="M39.13,10.28c-0.18-0.11-0.22-0.13-0.39,0.05c-0.01,0.01-0.05,0.09-0.12,0.05c-0.25-0.08-0.23,0.06-0.3,0.12
		c-0.02,0.01-0.09,0.06-0.1,0.05c-0.02-0.06-0.21-0.35-0.45,0.06c-0.11,0.19-0.57,0.07-0.57,0.16c0,0.57-0.39,1.01-0.92,1.01
		c-0.27,0-0.54-0.16-0.68-0.16c-0.22,0-0.52-0.1-0.78,0.2c-0.62,0.73-0.32,1.75-0.72,1.96c0.02-0.01,0.38-0.11,0.38-0.11
		c0.29,2.53-0.05,2.59-0.39,3.26c-0.34,0.5-1.12,0.91-1.45,0.86c-0.86-0.11-0.95-0.67-1.65-0.86c-0.6-0.16-1.11-0.62-1.11-1.36
		c0-0.29,0.23-0.58,0.52-0.58c0.53,0,0.59,0.8,0.8,0.8c0.74-0.02,0.94-0.65,1.08-1.15c0.23-1.2,0.15-2.42-0.34-3.84
		c-0.39-1.15-1.67-3.14-1.88-3.5c-0.19-0.34-1.21-2.28-1.47-3.26c-0.31-1.21-0.09-2.25,0.3-2.74c-1.25,0-1.58,1.63-1.64,2.74
		c-0.13,2.45-0.96,2.57-0.93,2.73c0.15,0.8,0.67,1.47,1.35,2.23c0.36,0.4,3,2.88,3,4.46c0,0.36,0.04,0.85-0.32,0.85
		c-0.2,0-0.62-0.07-0.51-0.23c0.81-1.08-1.2-3.69-1.91-4.4c-0.89-0.89-1.48-1.48-1.89-2.56c0,0,0.36,1.16,0.43,1.78
		c0.05,0.4,0.03,1.5-0.64,2.32c-0.41,0.49-0.78,0.99-0.91,1.33l-0.01,0.02c1.76-0.05,3.02,0.91,3.51,1.2
		c0.46,0.27,1.01,0.75,0.97,1.11c-0.02,0.23-0.11,0.42-0.3,0.51c0,0-0.19,0.2-0.26-0.29c-0.1-0.72-2.06-2.37-3.96-2.31
		c0.79,0.23,1.14,0.6,1.09,1.81c-0.02,0.65-0.38,1.61-0.35,2.16c0.56-0.22,1.27-0.9,2.87-0.68c0.58,0.08,1.08,0.46,0.98,0.92
		c0,0-0.33,0.41-0.6,0.14c-0.05-0.05-0.03-0.1,0.01-0.16c-0.99-0.67-1.48-0.87-3.12,0c0.71,0.45,0.96,0.7,0.83,1.34
		c-0.08,0.39-0.15,0.89-0.25,1.25c-0.06,0.23-0.21,1.68-0.14,2.01c0.44-1.17,1.65-2.51,2.28-2.9c1.33-0.82,2.38-0.38,2.26,0.05
		c-0.07,0.26-0.24,0.4-0.42,0.34c-0.1-0.04-0.11-0.12-0.1-0.14c-0.1-0.4,0.16-0.08,0.16-0.16c-0.02-0.55-2.18-0.21-4.05,2.55
		c0.22,0,0.91-0.13,0.91-0.13c0.06-0.2,0.34-0.72,0.67-0.84c0.19-0.07,0.61,0.07,0.61,0.07c0.13-0.05,0.63-0.52,1.2,0.14
		c0.07,0.08,0.19-0.19,0.4-0.22c0,0-0.25-0.14-0.06-0.44c0.12-0.18,0.19-0.2,0.32-0.38c0.17-0.25,0.42-0.55,0.67-0.71
		c0.21-0.14,0.5-0.21,0.74-0.25c0.25-0.05,1.35,0.06,1.61,0.06c0.41,0,0.63-0.21,1.04-0.21c0.13,0,1.03-2.23,0.67-3.74
		c-0.04-0.18-0.09-0.27-0.14-0.47c-0.39-1.6,2.95-3.07,3.63-3.42C39.03,10.55,39.13,10.37,39.13,10.28"/>
	<path class="st3" d="M21.16,7.29c0.09-0.13,0.46-0.82,0.58-1.13c0.05-0.14-0.16-0.74-0.41-1c-0.03-0.03-0.5,0.32-0.74,0.93
		c-0.01,0.02,0.11,0.76-0.02,1.53c-0.01,0.06,0.11-0.37,0.23-0.56C20.82,7.03,21.17,7.27,21.16,7.29"/>
	<path class="st3" d="M22.25,8.93c-0.08,0.01-0.51-0.05-0.88,0.37c0.24-0.75,0.12-1.43-0.04-1.79c0,0,2.41-3.6,1.64-6.15
		c0,0,0.19-0.13,0.46-0.08C24.23,1.41,25.86,3.42,22.25,8.93"/>
	<path class="st3" d="M24.68,3.9c0,0,0.18-0.29,0.54-0.35c0.09,0,0.23,1.5-0.35,3.15c-0.2,0.59-0.35,1.16-1.55,3.15
		c-0.03,0-0.57-0.08-0.97,0.5c0.02-0.06,0.06-0.19,0.08-0.28c0.03-0.04,0.17-0.65-0.01-0.95C22.3,9.21,24.19,6.97,24.68,3.9"/>
	<path class="st3" d="M14.75,10.92c0,0.26-0.07,0.35,0.11,0.53c0.25,0.26,0.71,0.05,0.86-0.06c-0.29-0.23-0.32-0.3-0.48-0.32
		c-0.08-0.01-0.12,0.1-0.12,0.18c0,0.08,0.06,0.11,0.1,0.17c-0.02,0.01-0.03,0.02-0.05,0.02c-0.12,0-0.24-0.06-0.24-0.18
		c0-0.11,0.01-0.17,0.01-0.28C14.95,10.93,14.81,10.93,14.75,10.92"/>
	<path class="st2" d="M14.05,10.03c-0.09-0.1-0.14-0.14-0.28-0.14c-0.16,0-0.26,0.14-0.31,0.29c-0.26-0.2-0.55-0.3-0.92-0.3
		c-0.49,0-0.83,0.43-0.83,0.92c0,0.17,0.07,0.29,0.15,0.45c0.11-0.16,0.23-0.26,0.43-0.33c0.15-0.05,1.01-0.27,1.31,0.91
		c0.66,0.22,1.08,0.71,1.08,1.4v0.34c-0.49-0.39-0.69-0.87-1.3-0.87c-0.33,0-0.71,0.17-0.6,0.55c0.1-0.1,0.27-0.3,0.61-0.24
		c0.68,0.13,0.85,0.65,1.34,1.08c0.03-0.08,0.03-0.94,0.04-1.05c0.04-0.64-0.68-1.16-0.79-1.92c-0.03-0.19,0.13-0.37,0.32-0.37
		c-0.17-0.1-0.24-0.17-0.27-0.44C14.03,10.1,14.02,10.23,14.05,10.03"/>
	<path class="st5" d="M8.86,10.57c0.09,0-0.49-0.08-0.73,0.91c0,0-0.07,0.82,0.58,1.17c0.36,0.2,0.66,0.22,1.08,0.22
		c0.22,0,0.35,0,0.56-0.01c0.12,0,0.99-0.17,1.5-0.24c0.64-0.1,1.1-0.22,1.76-0.09c0.33,0.07,0.47,0.29,0.72,0.48
		c0.02-0.44-0.66-0.7-0.92-0.74c-0.08-0.01-0.5-0.03-0.73-0.03c-0.76,0-1.14,0.13-1.9,0.13c-0.74,0-1.26-0.01-1.87-0.42
		c0,0.01-0.23-0.28-0.2-0.19c0.08,0.22-0.22,0.34-0.25-0.1C8.41,11.09,8.75,10.69,8.86,10.57"/>
	<path class="st3" d="M19.41,10.4c-0.12-0.07-0.46-0.28-0.5-0.22c-0.02,0.03-0.01,0.54-0.06,0.97c0.01-0.1-0.42-0.41-0.42-0.44
		c0.06-0.9,0.11-1.64-0.06-2.29C18.31,8.2,19.34,8.72,19.41,10.4"/>
	<path class="st3" d="M18.8,11.48c0,0-0.45,1.62,0.11,2.84c-0.22-0.47-0.71-1.02-0.79-1.38c-0.04-0.18-0.07-0.27-0.08-0.66
		c-0.01-0.65-0.05-1.05-0.11-1.51C17.92,10.7,18.55,11,18.8,11.48"/>
	<path class="st2" d="M10.56,21.28c-0.05-0.06-0.11-0.08-0.33-0.08c-0.25,0-0.34,0.21-0.39,0.46c-0.01-0.06-0.03-0.1-0.03-0.17
		c0-0.37,0.12-0.86,0.5-0.86c0.33,0,0.51,0.02,0.65,0.32C10.87,21,10.66,21.11,10.56,21.28"/>
	<path class="st2" d="M10.79,22.27v0.58c-0.06,0-0.46,0.07-0.41,0.41c0.02,0.12,0.06,0.19,0.12,0.28c-0.31-0.13-0.4-0.43-0.4-0.77
		C10.1,22.53,10.31,22.18,10.79,22.27"/>
	<path class="st2" d="M19.39,44.28c0.11,0.58-0.29,1.01-0.18,1.11c0.11,0,0.33,0.03,0.44,0.03c0.55,0,0.77-0.19,1.04-0.66l0.25-0.13
		c-0.21,0.07-0.33,0-0.19-0.16c-0.16,0.06-0.27,0.08-0.44,0.15c0.06-0.16,0.15-0.27,0.26-0.39L19.39,44.28z"/>
	<path class="st4" d="M12.46,40.35c-0.05-0.06,1.2,0.64,1.18,0.72c-0.06,0.37-0.69,1.17-0.77,1.55c-0.03,0.1,0.31,0.1,0.25,0.37
		c-0.02,0.12-0.21,0.18-0.33,0.18c-0.22,0-0.29-0.17-0.51-0.17c-0.23,0-0.12,0.3-0.12,0.53c0,0.14-0.03,0.36-0.2,0.36
		c-0.3,0-0.22-0.02-0.52-0.06c-0.37-0.05-0.32-0.23-0.45-0.23c-0.14,0-0.29,0.1-0.43,0.1c-0.24,0-0.22,0.02-0.35-0.17
		c0.41-0.32,0.81-0.48,0.96-0.7C11.53,42.31,12.46,40.51,12.46,40.35"/>
	<path class="st2" d="M12.31,44.08c-0.2-0.09-0.24,0.11-0.57,0.11c-0.33,0-0.48-0.18-0.81-0.18c-0.11,0.53-0.18,1.54-0.22,1.64
		c0.02,0.01,0,0.02,0.04,0.02c0.39,0,0.79-0.17,1-0.25c0.19-0.08,0.3-0.15,0.48-0.26c0.18-0.11,0.31-0.22,0.42-0.34
		c0.04-0.04,0.05-0.09,0.04-0.14c0-0.03-0.04-0.1-0.11-0.21C12.53,44.34,12.48,44.16,12.31,44.08"/>
	<path class="st2" d="M10.27,43.88c-0.11,0.04-1.18,1.27-1.18,1.27c-0.12,0-0.26-0.01-0.22-0.13c0.33-0.88,0.61-0.81,0.9-1.2
		C9.71,43.8,10.33,43.9,10.27,43.88"/>
	<path class="st2" d="M18.06,43.74c0.42,0.11,0.63,0.21,0.52,0.16c-0.34,0.35-0.51,0.8-0.63,1.24c-0.05,0.18-0.24,0.05-0.27,0.01
		c-0.09-0.09-0.04-0.5-0.01-0.56C17.82,44.25,18.06,43.77,18.06,43.74"/>
	<path class="st3" d="M45.8,47.62c0-0.18-0.03-0.5-0.03-0.68c0-0.32-0.15-0.46-0.15-0.78c0-0.26,0-0.75,0-1l0.24-0.15
		c0,0.17-0.08,0.4-0.08,0.57c0,0.11,0.13,0.82,0.13,0.82s0.05,0.21,0.05,0.37v0.73L45.8,47.62z"/>
	<path class="st3" d="M36.06,48.86c0.04,0,0,1.24,0,1.24s0.28-0.01,0.41-0.01l-0.03-0.49c0,0,0.07-0.68,0.06-0.75
		c-0.05-0.3-0.07-0.63-0.07-0.73c0-0.1-0.1-0.23-0.1-0.23c-0.02-0.11,0.07-0.2,0.07-0.31c-0.08,0-0.53-0.02-0.61-0.02
		C35.7,47.57,35.93,48.86,36.06,48.86"/>
	<path class="st3" d="M17.98,49.15c0,0.03,0.09,0.39,0.07,0.41l0.3-0.05c-0.05-0.09-0.29-0.38-0.19-0.78c0.02,0,0.1-0.9,0.05-0.92
		c-0.23-0.11-0.23-0.68-0.21-0.78h-0.17c0,0.02,0,0.33-0.03,0.42l-0.05,0.94c0,0,0.24,0.3,0.23,0.38
		C17.95,48.91,17.98,48.97,17.98,49.15"/>
	<path class="st6" d="M38.9,40.81c0,0,0.18-0.15,0.29-0.16c-0.02,0.14-0.08,0.47-0.08,0.61c0,0.07-0.32,0.59-0.37,0.93
		C38.7,42.12,38.88,40.92,38.9,40.81"/>
	<path class="st3" d="M38.56,42.6c-0.18,0.19-0.37,0.2-0.63,0.2c-0.27,0-0.39-0.01-0.66-0.05c-0.17,0.49-0.33,0.81-0.46,1.18
		c-0.03,0.09-0.73,0.46-0.74,0.82c-0.01,0.24-0.03,0.45,0.36,0.46c0.09,0,0.28,0.06,0.37,0.06c0.28,0,0.4,0.05,0.69,0.05
		c0.36,0,0.54-0.02,0.61-0.08c0.15-0.12,0.55-0.34,0.55-0.53c0-0.1,0.04-0.23,0.04-0.34c0-0.17,0.03-0.2,0.03-0.37
		c0-0.12-0.06-0.19-0.06-0.32c0-0.18,0.01-0.28,0.01-0.46C38.65,43.07,38.64,42.68,38.56,42.6"/>
	<path class="st6" d="M37.03,42.38c0-0.3-0.18-1.08-0.27-1.4c-0.04-0.13-0.44-0.48-0.93-0.45c-0.04,0,0.01,0.12-0.03,0.12
		c0,0.37,0.06,1.98,0.06,2.01C35.85,42.72,37.03,42.49,37.03,42.38"/>
	<path class="st6" d="M45.44,43.44c0.04,0.03-2.73,1.1-2.78,0.94c-0.03-0.09,2-1.89,2-1.89C44.83,42.47,45.32,43.35,45.44,43.44"/>
	<path class="st6" d="M42.35,41.92l0.07-0.7c-0.08,0-0.37-0.02-0.45-0.03c-0.11-0.02,0-0.46-0.23-0.46c-0.08,0-0.12,0.02-0.2,0.02
		c-0.35,0.59-0.85,1.4-0.79,1.63C40.76,42.41,42.21,41.96,42.35,41.92"/>
</g>
<g>
	<defs>
		<path id="SVGID_3_" d="M38.82,42.97c0,0.17-0.03,0.34,0.03,0.5c0.03,0.1,0.1,0.12,0.18,0.18c0.23,0.18,0.46,0.28,0.52,0.39
			c0.28,0.48,0.47,0.63,0.93,0.72c0.03,0,0.37,0.13,0.55,0.13c0.31,0,0.81-0.07,0.94-0.27l0.07-0.51c-0.29-0.18-0.4-0.25-0.64-0.44
			c-0.23-0.18-0.52-0.39-0.58-0.49c-0.04-0.06-0.23-0.33-0.32-0.87c-0.09,0-0.96,0.05-1.45-0.39
			C38.83,42.36,38.82,42.49,38.82,42.97"/>
	</defs>
	<clipPath id="SVGID_4_">
		<use xlink:href="#SVGID_3_"  style="overflow:visible;"/>
	</clipPath>
	
		<radialGradient id="SVGID_5_" cx="-35.4383" cy="90.6349" r="1" gradientTransform="matrix(2.2636 0 0 -2.2636 121.2963 249.3211)" gradientUnits="userSpaceOnUse">
		<stop  offset="0" style="stop-color:#FFFFFF"/>
		<stop  offset="0.4091" style="stop-color:#FFFFFF"/>
		<stop  offset="1" style="stop-color:#FFFFFF"/>
	</radialGradient>
	<rect x="38.79" y="41.92" class="st7" width="3.25" height="2.96"/>
</g>
<g>
	<defs>
		<rect id="SVGID_6_" x="-9.02" y="-6.6" width="69.52" height="67.37"/>
	</defs>
	<clipPath id="SVGID_7_">
		<use xlink:href="#SVGID_6_"  style="overflow:visible;"/>
	</clipPath>
	<path class="st8" d="M35.3,39.81l-0.16-3.73c0.18,0.2,0.63,0.26,0.9,0.26c0,0.14,0.17,0.47,0.44,0.54c0,0.08,0.19,0.79,0.19,0.88
		c0,0.08,0.05,0.18,0.05,0.26c0.01,0.31-0.19,0.57-0.22,0.83c-0.01,0.16-0.12,0.73,0.13,1.55c-0.2-0.07-0.38-0.11-0.54-0.11
		C35.74,40.29,35.65,39.82,35.3,39.81"/>
	<path class="st9" d="M43.1,41.38l-0.07,0.55c0.09,0.25,1.08-0.2,1.08-0.2C43.95,41.43,43.43,41.38,43.1,41.38"/>
</g>
<g>
	<defs>
		<path id="SVGID_8_" d="M40.6,38.09c-0.02,0-0.04,0.57,0.19,1.38c0.04,0.3,0.12,0.4,0.3,1.02c0.11-0.02,0.47-0.29,0.47-0.29
			c0.33-0.3,0.67-1.14,0.78-1.36c0.01-0.03,0.01-0.01,0.01-0.04C41.52,39.03,40.68,38.16,40.6,38.09L40.6,38.09z"/>
	</defs>
	<clipPath id="SVGID_9_">
		<use xlink:href="#SVGID_8_"  style="overflow:visible;"/>
	</clipPath>
	
		<linearGradient id="SVGID_10_" gradientUnits="userSpaceOnUse" x1="-35.4383" y1="90.6345" x2="-34.4383" y2="90.6345" gradientTransform="matrix(1.6817 0.7138 0.7138 -1.6817 35.5235 216.6528)">
		<stop  offset="0" style="stop-color:#FFFFFF"/>
		<stop  offset="1" style="stop-color:#FFFFFF"/>
	</linearGradient>
	<polygon class="st10" points="40.83,37.44 43.21,38.45 42.08,41.13 39.69,40.12 	"/>
</g>
<g>
	<defs>
		<path id="SVGID_11_" d="M36.71,39.19c0,0.1,0.01,0.11,0.03,0.21c0.11,0.51,0.6,0.92,0.74,1.06c0.17,0.16,0.33,0.36,0.4,0.28
			c0.21-0.23,0.41-0.38,0.57-0.59c0.24-0.31,0.48-0.38,0.43-1.28c-0.01-0.19-0.08-0.44-0.17-0.42c-0.16,0.04-0.36,0.1-0.49,0.13
			c-0.05,0.01-0.18,0.03-0.24,0.03c-0.19,0-0.67-0.01-1.11-0.17C36.79,38.54,36.71,38.91,36.71,39.19"/>
	</defs>
	<clipPath id="SVGID_12_">
		<use xlink:href="#SVGID_11_"  style="overflow:visible;"/>
	</clipPath>
	
		<linearGradient id="SVGID_13_" gradientUnits="userSpaceOnUse" x1="-35.4383" y1="90.6347" x2="-34.4383" y2="90.6347" gradientTransform="matrix(2.1563 -0.113 -0.113 -2.1563 123.3779 231.105)">
		<stop  offset="0" style="stop-color:#FFFFFF"/>
		<stop  offset="0.267" style="stop-color:#FFFFFF"/>
		<stop  offset="0.7159" style="stop-color:#FFFFFF"/>
		<stop  offset="1" style="stop-color:#FFFFFF"/>
	</linearGradient>
	<polygon class="st11" points="36.58,38.43 38.93,38.3 39.06,40.8 36.71,40.92 	"/>
</g>
<g>
	<defs>
		<path id="SVGID_14_" d="M39.4,39.6c0,0.13-0.03,0.25-0.03,0.39c0,0.1,0.01,0.27,0,0.36l-0.08,0.94l0,0
			c0.21-0.15,0.92-0.38,1.1-0.52c-0.5-1.09-0.44-1.8-0.38-2.36c0,0,0,0,0,0C39.99,38.41,39.4,39.12,39.4,39.6"/>
	</defs>
	<clipPath id="SVGID_15_">
		<use xlink:href="#SVGID_14_"  style="overflow:visible;"/>
	</clipPath>
	
		<linearGradient id="SVGID_16_" gradientUnits="userSpaceOnUse" x1="-35.4383" y1="90.635" x2="-34.4383" y2="90.635" gradientTransform="matrix(1.4645 0.4199 0.4199 -1.4645 52.9444 187.2549)">
		<stop  offset="0" style="stop-color:#FFFFFF"/>
		<stop  offset="0.6477" style="stop-color:#FFFFFF"/>
		<stop  offset="1" style="stop-color:#FFFFFF"/>
	</linearGradient>
	<polygon class="st12" points="39.38,38.12 41.17,38.63 40.32,41.59 38.54,41.08 	"/>
</g>
<g>
	<defs>
		<rect id="SVGID_17_" x="-9.02" y="-6.6" width="69.52" height="67.37"/>
	</defs>
	<clipPath id="SVGID_18_">
		<use xlink:href="#SVGID_17_"  style="overflow:visible;"/>
	</clipPath>
	<path class="st13" d="M38.74,40.64c-0.19,0.19-0.23,0.34-0.47,0.51c0.09,0.15,0.26,0.21,0.32,0.4
		C38.68,41.23,38.74,40.64,38.74,40.64"/>
	<path class="st13" d="M37.88,41.59c0.28,0.24,0.53,0.46,0.51,0.54c-0.17,0.07-0.7,0.2-1.02,0.08
		C37.59,41.91,37.64,41.83,37.88,41.59"/>
	<path class="st13" d="M40.99,41.14c-0.4,0.24-0.7,0.3-1.12,0.48c0.28,0.08,0.7,0.16,0.77,0.07C40.68,41.64,40.83,41.44,40.99,41.14
		"/>
	<path class="st13" d="M36.88,40.69c0.29,0.37,0.66,0.55,0.64,0.59c-0.1,0.13-0.19,0.17-0.32,0.4C37.19,41.68,37,41.15,36.88,40.69"
		/>
</g>
<g>
	<defs>
		<path id="SVGID_19_" d="M38.21,36.89c-0.06,0.01-1.31,0.11-1.51,0.04c0.1,0.41,0.07,0.56,0.27,0.74c0.36,0.33,1.68,0.12,1.8-0.19
			c0.09-0.23,0.11-0.44,0.11-0.69c0-0.01,0-0.01-0.01-0.01C38.84,36.78,38.68,36.84,38.21,36.89"/>
	</defs>
	<clipPath id="SVGID_20_">
		<use xlink:href="#SVGID_19_"  style="overflow:visible;"/>
	</clipPath>
	
		<radialGradient id="SVGID_21_" cx="-35.4384" cy="90.6349" r="1.0001" gradientTransform="matrix(1.0948 0 0 -1.0948 76.596 136.5407)" gradientUnits="userSpaceOnUse">
		<stop  offset="0" style="stop-color:#FFFFFF"/>
		<stop  offset="1" style="stop-color:#FFFFFF"/>
	</radialGradient>
	<rect x="36.71" y="36.78" class="st14" width="2.18" height="1.22"/>
</g>
<g>
	<defs>
		<rect id="SVGID_22_" x="-9.02" y="-6.6" width="69.52" height="67.37"/>
	</defs>
	<clipPath id="SVGID_23_">
		<use xlink:href="#SVGID_22_"  style="overflow:visible;"/>
	</clipPath>
	<path class="st15" d="M39.62,36.66c0,0.12,0.03,0.37,0.03,0.48c0.19-0.01,0.94-0.05,1.05-0.1c0,0.03-0.04,0.11-0.05,0.19
		c-0.02,0.23-0.07,0.1-0.22,0.29c-0.68,0.82-1.13,1.25-1.22,1.93c-0.02,0.19-0.03,0.73-0.03,0.92c-0.11,0.07-0.25,0.16-0.25,0.14
		c0-0.1,0.05-0.35,0.06-0.45c0.05-0.43,0.15-0.57,0.13-1c-0.04-0.73-0.26-0.64-0.25-0.99c0.02-0.46,0.09-0.41,0.17-0.81
		c0.05-0.23,0-0.48,0.04-0.48C39.2,36.77,39.5,36.68,39.62,36.66"/>
</g>
<g>
	<defs>
		<path id="SVGID_24_" d="M41.02,37.02c-0.02,0.21-0.22,0.17,0.13,0.53c0.4,0.41,1.57,0.88,1.79,0.21l0.11-1.01
			C42.91,36.78,41.02,37.02,41.02,37.02"/>
	</defs>
	<clipPath id="SVGID_25_">
		<use xlink:href="#SVGID_24_"  style="overflow:visible;"/>
	</clipPath>
	
		<radialGradient id="SVGID_26_" cx="-35.4383" cy="90.6349" r="1" gradientTransform="matrix(1.3423 0 0 -1.3423 89.846 159.1042)" gradientUnits="userSpaceOnUse">
		<stop  offset="0" style="stop-color:#FFFFFF"/>
		<stop  offset="1" style="stop-color:#FFFFFF"/>
	</radialGradient>
	<rect x="40.8" y="36.75" class="st16" width="2.24" height="1.68"/>
</g>
<g>
	<defs>
		<rect id="SVGID_27_" x="-9.02" y="-6.6" width="69.52" height="67.37"/>
	</defs>
	<clipPath id="SVGID_28_">
		<use xlink:href="#SVGID_27_"  style="overflow:visible;"/>
	</clipPath>
	<path class="st17" d="M39.67,28.19l0,6.78c0.04,0.45-0.04,0.71-0.04,1.16c0,0.06-0.01,0.1-0.02,0.16c-0.7,0.23-3.32,0.66-3.3-0.37
		c0,0,0.59-6.65,0.59-7.59l-0.04-0.97c-0.06,0.28-0.13,0.65-0.14,0.95c0,0.17-0.07,0.46-0.07,0.83c0,0.31-0.8,6.05-0.8,6.49
		c-0.91-0.1-0.5,0.25-0.65,0.12l0.06-6.22c0.09-0.23,0.34-1.45,1.08-2.57c0.26,0.12,0.86,0.77,3.08,0.85
		C39.48,28,39.59,28.14,39.67,28.19"/>
	<path class="st17" d="M42.97,27.11c0.44,1.1,0.61,3.45,0.61,5.14l-0.44,4.09l-3.12,0.33l-0.11-8.41c0.45-0.11,0.7-0.13,0.73-0.25
		c0.02-0.12,0.44-0.21,0.54-0.2c0,0,0.1,4.2,0.08,4.21c-0.02,0.02-0.27,0.04-0.25,0.09c0,0,0.01,0.89,0.01,0.95
		c0.01,0.2,0.19,0.34,0.32,0.38c0.04,0.01,0.09,0.07,0.09,0.1c0,0.07,0.12,0.09,0.31,0.09c0.18,0,0.29-0.06,0.29-0.06
		c0.05-0.01,0.02-0.1,0.11-0.16c0.08-0.05,0.26-0.16,0.3-0.39l0-1.04c0-0.07-0.21-0.01-0.22-0.03c-0.01-0.02-0.01-4.3-0.01-4.3
		C42.35,27.62,43.03,27.26,42.97,27.11"/>
	<path class="st18" d="M42.58,39.98l0.17-1.16c-0.17,0.14-0.81,1.35-0.83,1.39C41.78,40.49,42.21,40.2,42.58,39.98"/>
	<path class="st17" d="M42.45,40.98c-0.12-0.02-0.15-0.04-0.27-0.04c-0.04-0.28-0.07-0.39-0.49-0.39h-0.04
		c0.14-0.04,0.21-0.05,0.38-0.07c0.27-0.04,0.25-0.08,0.52-0.15L42.45,40.98z"/>
	<path class="st18" d="M45.36,26.42c0,0.41-0.14,3.16-0.14,3.39c0,1.28-0.05,1.93-0.05,3.2c0,0.32,1.03,1.19,1.41,1.4
		c0.7,0.49,0.38,0.8,0.03,1.07c-0.04,0.03-0.17,0.11-0.2,0.15c-0.23,0.23-0.27,0.59-0.67,0.81c-0.03,0.02-0.58,0.42-0.69,0.59
		c0,0-0.08-5.11-0.08-7.76C44.97,29.02,45.36,26.42,45.36,26.42"/>
	<path class="st17" d="M45.56,36.96c-0.24,0.19-0.35,0.29-0.45,0.6c-0.16,0.44-0.21,0.41,0.37,0.61
		C45.52,37.85,45.55,37.09,45.56,36.96"/>
	<path class="st18" d="M44.72,30.34c0,0.12,0.02,7.51,0.05,7.75c0.05,0.35,0.7,0.14,0.7,0.49c0,0.25-0.67,1.18-2.12,1.2
		c-0.04,0,0.55-3.8,0.55-3.8c0.23-0.02,0.38-0.06,0.48-0.09c0.08-0.03-0.22-0.58-0.15-2.16c0-0.04,0.04-0.43,0.04-0.43
		S44.7,30.36,44.72,30.34"/>
	<polygon class="st17" points="45.64,20.66 45.74,20.67 45.86,20.67 42.32,44.79 42.16,44.74 	"/>
	<path class="st18" d="M43,26.79v-0.61c0-0.22-0.02-0.58,0.02-0.61c0.12-0.13,0.27-0.19,0.52-0.43c0,0,0.05,0.02,0.11,0.06
		c0.08,0.04,0.38,0.23,0.43,0.26c0.11,0.05,0.35,0.16,0.52,0.22l-0.68,4.88C43.54,26.45,43,26.79,43,26.79"/>
	<path class="st17" d="M46.13,25.79c0.21-0.22,0.51-0.78,0.63-1.01c0.02,0.19,0,0.14,0.04,0.33c0.18,0.97,0.22,1.39,0.4,2.3
		c0.13,0.68,0.32,1.78,0.34,1.9c-0.06-0.12-0.35-0.3-0.51-0.39c-0.04-0.02-0.07-0.03-0.12-0.04c-0.3-0.12-0.74-0.21-0.84-0.21
		C46.06,28.51,46.16,25.9,46.13,25.79"/>
	<path class="st18" d="M45.79,25.79c0.04,0.14-0.06,2.87-0.06,3.26c0.17-0.03,0.79,0.05,0.94,0.11c0.73,0.32,1.68,0.55,0.09,1.55
		c-0.47,0.3-1.12,0.96-1.25,1.2C45.51,31.66,45.76,25.82,45.79,25.79"/>
	<path class="st17" d="M46.92,31c-1.18,0.93-1.47,1.5-1.47,1.82c-0.01,0.26,0.21,0.71,1.1,1.25c0.05,0.03,0.11,0.05,0.16,0.08
		c0.2,0.1,0.29,0.13,0.41,0.33C47.11,34.3,46.8,31.09,46.92,31"/>
	<path class="st18" d="M36.6,25.75c0.11,0.04,0.13,0.12,0.24,0.15l-0.01,0.9c-0.21-0.06-0.22-0.13-0.23-0.3
		C36.58,26.28,36.61,26,36.6,25.75"/>
	<path class="st18" d="M37.32,26.11c0.08,0.05,0.23,0.11,0.33,0.12c0,0.23,0.03,0.83,0.02,0.98c-0.18-0.08-0.32-0.12-0.35-0.24
		c-0.01-0.13,0-0.32,0.01-0.61C37.32,26.3,37.3,26.19,37.32,26.11"/>
	<path class="st19" d="M37.32,26.11c0.08,0.05,0.23,0.11,0.33,0.12c0,0.23,0.03,0.83,0.02,0.98c-0.18-0.08-0.32-0.12-0.35-0.24
		c-0.01-0.13,0-0.32,0.01-0.61C37.32,26.3,37.3,26.19,37.32,26.11z"/>
	<path class="st18" d="M40.59,25.86c-0.37,0.12-0.73,0.1-1.07,0.24c-0.13,0.05-0.13,0.23-0.17,0.37c-0.05,0.18-0.13,0.28-0.2,0.45
		c0,0.15-0.01,0.2,0.01,0.34c0.03,0.21,0.15,0.29,0.29,0.44c0.14,0.15,0.11,0.21,0.25,0.37c0.12-0.02,0.23-0.04,0.37-0.08
		c0.12-0.03,0.35-0.09,0.39-0.18c0.05-0.13-0.38,0-0.55-0.06c-0.16-0.07,0.03-0.38-0.15-0.38c-0.16,0-0.26-0.11-0.33-0.19
		c-0.12-0.16,0.21-0.2,0.27-0.3c0.14-0.22-0.02-0.46,0.22-0.54c0.29-0.1,0.72-0.09,0.72-0.22C40.64,25.95,40.75,25.86,40.59,25.86"
		/>
	<path class="st18" d="M39.54,27.12c0.1,0.18,0.46,0.18,0.67,0.18c0.12,0,0.07-0.11,0.07-0.23c0-0.11,0.03-0.22-0.09-0.22
		C39.98,26.84,39.7,27.01,39.54,27.12"/>
	<path class="st17" d="M35.99,18.93c0.2-0.15,0.27,0.26,0.46,0.48c0.41-0.21,0.84-0.08,0.86-0.08c0.1,0.12,0.18,0.25,0.29,0.4
		c-0.08,0.26-0.13,0.27-0.05,0.4c0.06,0.09,0.22,0.28,0.38,0.29c-0.01,0.19,0.04,0.36,0.23,0.36c0.02,0,0.55,0.79,1.19,1.49
		c0.8,0.87,1.76,1.68,1.91,1.74c0.18,0.03,0.41-0.06,0.28-0.3c-0.5,0.16-3.31-2.93-3.09-2.92c0.23,0.21,0.15,0.29,0.33,0.28
		c0.15-0.01,0.46,0.03,0.52,0.03c0.07,0,0.33-0.01,0.42-0.02c0.48-0.01,1.17-0.1,1.22-0.36c0.03-0.14-0.06-0.36-0.06-0.51
		c0.38-0.21,0.38-0.31,0.17-0.78c0.55,0.02,1.33,0.25,1.62,0.63c0.25,0.34,0.47,0.61,0.49,0.89c0.01,0.21,0.29,0.24,0.71,0.83
		c-0.46,0.1-0.73,0.38-1.03,0.65c-0.01,0.04-0.76,0.95-0.56,0.81c0.03-0.02,0.33-0.24,0.36-0.27c0.03-0.02,0.11-0.1,0.16-0.15
		c0.49-0.43,1.48-1.21,2.32-0.61l-0.07,0.49c-0.28,0.18-0.62,0.89-0.77,1.13c-2.15,3.44-5.93,2.74-7.18-2.67
		C36.95,20.4,36.46,19.56,35.99,18.93"/>
	<path class="st20" d="M44.87,19.29l0.12,0.22c0.03,0.03,0,0.07,0.13,0.04c0.03-0.05,0.03-0.23,0.02-0.29
		C45.12,19.13,44.88,19.1,44.87,19.29"/>
	<path class="st20" d="M46.37,21.17c0.14-0.05,0.15-0.03,0.23-0.09c-0.47-0.04-0.54-0.29-0.63-0.63c-0.04-0.02-0.09-0.09-0.15-0.09
		c-0.21-0.01-0.46,0.03-0.47,0.19l-0.12,0c-0.07-0.01-0.01-0.2,0.03-0.32c0.02-0.07,0.11-0.2,0.16-0.22c0.1-0.05,0.3-0.05,0.48-0.07
		c0.04-0.01,0.02-0.08,0.02-0.08c-0.26,0-0.5,0.01-0.59,0.05c-0.01,0-0.11,0.3-0.12,0.3c-0.04-0.01-0.04-0.29,0.02-0.37
		c0.06-0.08,0.15-0.26,0.24-0.29c0.13-0.06,0.27-0.02,0.51-0.02c0.13-0.02,0.1-0.07,0.01-0.08c-0.18-0.02-0.42-0.04-0.56,0.03
		c-0.04,0.02-0.18,0.24-0.18,0.24c0-0.06,0.03-0.3,0.07-0.43c0.02-0.01,0.17-0.21,0.3-0.21c0.09,0,0.59-0.05,0.71-0.03
		c0.01-0.06-0.29-0.11-0.49-0.17c-0.1,0.03-0.15,0.05-0.25,0.08c-0.08,0.02-0.16,0-0.23,0.16l-0.03-0.12l0.02-0.18
		c0.23-0.19,0.54-0.31,0.56-0.31c0.18-0.03,0.71,0.34,0.91,0.5c0.07,0.05,0.21,1.25,0.21,1.59c0,0.21,0.03,0.42,0.09,0.61
		c0.07,0.22-0.63,0.14-0.79,0.11C46.26,21.3,46.32,21.2,46.37,21.17"/>
	<path class="st17" d="M45.04,23.12l-0.35,2.25c-0.14,0.05-0.95-0.42-0.95-0.42C44.5,23.97,44.66,23.5,45.04,23.12"/>
	<path class="st17" d="M45.54,25.55c0.23-0.02,0.34,0.05,0.54-0.12c0.75-0.64,1.2-3.11,1.14-4.03c-0.17,0.13-0.26,0.17-0.48,0.17
		c-0.36-0.01-0.46-0.07-0.58-0.14L45.54,25.55z"/>
	<path class="st17" d="M36.89,18.51c-0.21-0.05-0.52-0.01-0.67,0.16c0.22,0.18,0.31,0.47,0.31,0.47c0.21-0.22,0.53-0.18,0.71-0.09
		C37.24,18.97,37.16,18.57,36.89,18.51"/>
	<path class="st18" d="M36.1,14.88c0.09,0.01,0.17,0.08,0.18,0.2c0,0.28-0.15,0.33-0.39,0.33c-0.05,0-0.49,0-0.52,0.04
		c0.01-0.19-0.04-0.63,0.13-0.63C35.66,14.82,36.02,14.87,36.1,14.88"/>
	<path class="st18" d="M36.17,15.76c0.25-0.01,0.33,0.41,0.17,0.56c-0.12,0.11-0.78,0.14-0.98,0.11c0.05-0.11,0.05-0.73,0.11-0.67
		C35.63,15.75,35.91,15.77,36.17,15.76"/>
	<path class="st18" d="M35.31,16.74c0.09,0.02,0.71,0.05,1,0.05c0.08,0,0.16,0.54-0.15,0.54c-0.18,0-0.82-0.03-0.99-0.08
		C35.18,17.09,35.27,16.9,35.31,16.74"/>
	<path class="st18" d="M35.06,17.54c0.2,0.08-0.23,0.41-0.18,0.55c0.06,0.18,0.77,0.35,1.11,0.35c0.23,0,0.3-0.53,0.15-0.6
		C35.98,17.75,35.39,17.67,35.06,17.54"/>
	<polygon class="st17" points="46.21,18.35 46,18.27 46.39,15.47 46.51,15.44 46.64,15.5 	"/>
	<path class="st21" d="M35.28,14.8c0.15-0.03,0.29,0.11,0.31,0.29c0.02,0.19-0.08,0.36-0.23,0.38C35.35,15.48,35.3,14.99,35.28,14.8
		"/>
	<path class="st21" d="M35.31,15.73c0.15,0.02,0.26,0.2,0.25,0.41c-0.02,0.2-0.15,0.35-0.31,0.33
		C35.24,16.47,35.3,15.94,35.31,15.73"/>
	<path class="st21" d="M35.24,16.63c0.15,0.05,0.23,0.23,0.18,0.41c-0.05,0.17-0.2,0.27-0.35,0.22
		C35.06,17.26,35.2,16.8,35.24,16.63"/>
	<path class="st21" d="M35,17.48c0.14,0.08,0.21,0.29,0.15,0.48c-0.06,0.19-0.22,0.29-0.36,0.21C34.77,18.17,34.94,17.67,35,17.48"
		/>
	<path class="st18" d="M38.18,26.36c0.08,0.05,0.29,0.07,0.39,0.09c0,0.23,0.04,0.81,0.02,0.97c-0.15-0.02-0.38-0.01-0.41-0.13
		C38.17,27.15,38.16,26.44,38.18,26.36"/>
	<path class="st22" d="M38.18,26.36c0.08,0.05,0.29,0.07,0.39,0.09c0,0.23,0.04,0.81,0.02,0.97c-0.15-0.02-0.38-0.01-0.41-0.13
		C38.17,27.15,38.16,26.44,38.18,26.36z"/>
	<path class="st21" d="M39.73,10.4c-0.07-0.01-0.12-0.3,0.12-0.29c0.14,0.01,0.24,0.11,0.24,0.26c0,0.14-0.25,0.29-0.4,0.26
		C39.55,10.59,40.01,10.45,39.73,10.4"/>
	<path class="st17" d="M39.27,19.38c-0.01,0.08-0.02,0.21-0.02,0.44l-0.06,0.68c-0.09,0-0.27,0.05-0.36,0.06l0.01,0.1
		c0.26-0.01,0.44,0.04,0.64-0.01c0.06,0,0.09-0.49,0.16-0.5c0.07,0-0.01,0.51,0.06,0.51c0.06,0,0.35,0.03,0.47,0
		c0.09-0.16,0.1-0.39,0.17-0.56c0.03,0.13,0.06,0.42,0.19,0.42c0.13,0,0.2-0.05,0.29-0.08c-0.06-0.55-0.18-0.74-0.18-1.29
		c0-0.16-0.02-0.28-0.02-0.44l0.03-0.06c0.04,0.05,0.12,0.3,0.15,0.5c0.02,0.17,0.1,0.26,0.1,0.43l0.03,0.23
		c0.06-0.03,0.15-0.13,0.18-0.13c0.06,0-0.38-0.9-0.38-1.43c0-0.06-0.24-0.31-0.25-0.39c-0.07,0,0.12,0.35,0.04,0.41
		c-0.07-0.07-0.11-0.33-0.21-0.33c-0.04,0-0.09,0-0.13,0.02C40.12,18,40.06,18,39.98,18c-0.05,0-0.11-0.06-0.17-0.06
		c-0.13,0-0.17-0.02-0.3,0c-0.19,0.03-0.45,0.41-0.45,0.44c-0.03-0.2,0.27-0.49,0.33-0.65c0-0.04,0.05-0.22,0.1-0.23
		c-0.06,0.18,0.18,0.27,0.32,0.31c0.02,0.01,0.06,0.03,0.06,0.05l0.15,0.05l0.18-0.01l0.12-0.05c0.02-0.08,0.02-0.06-0.04-0.2
		c-0.01-0.03-0.03-0.04-0.03-0.09c-0.02-0.26-0.06-0.43-0.07-0.48c-0.02-0.02-0.03-0.34-0.06-0.35c-0.05-0.02,0.04,0,0.06-0.05
		c0.02-0.06,0-0.15,0-0.23c0.09-0.02,0.09,0.2,0.14,0.2c0.18-0.01,0.42-0.02,0.53-0.04c0.01,0,0.08-0.02,0.17-0.12
		c0.04-0.06,0.04-0.07-0.42-0.21c-0.11-0.03,0.18-0.1,0.12-0.27c0,0.05-0.29-0.63-0.34-0.72c-0.05-0.11,0-0.15,0-0.27
		c0-0.09-0.21-0.11-0.4-0.16c-0.2-0.06-0.2-0.13-0.35-0.15c-0.02,0,0.07,0.18,0.17,0.49c0.01,0.03-0.44-0.62-0.62-0.52
		c-0.21-0.06-0.85,0.1-0.95,0.1c0,0,0.74,0.56,0.59,0.56c-0.02-0.03-0.71-0.36-0.72-0.36c-0.22,0.2-0.42,0.44-0.46,0.57
		c-0.17,0.56-0.23,0.94-0.23,0.94c0,0.31-0.2,0.55-0.33,0.85c-0.02,0.04-0.13,0.21-0.13,0.26c0,0.09,0.22,0.19,0.26,0.1
		c0.11-0.3,0.17-0.3,0.1,0.13c-0.01,0.04,0.14,0.12,0.12,0.24c-0.02,0.06,0.17,0.06,0.27,0.07c0.03,0,0.05-0.06,0.05-0.06
		c-0.27-0.14-0.19-0.85-0.11-1.12c0.05-0.11,0.19-0.07,0.31-0.05c0.02,0.07-0.09,0.01-0.11,0.13c-0.03,0.16-0.06,0.43-0.06,0.43
		c0,0.23-0.04,0.39,0.03,0.47c0.07,0.06,0.08,0.11,0.14,0.17c-0.06,0.18-0.22,0.69-0.48,0.95c-0.08,0.08,0.08,0.12,0.14,0.18
		c0.05,0.05,0.39-0.72,0.45-0.97c0,0,0.06,0,0.06,0.19c0,0.14-0.31,0.96-0.39,1.35c-0.03,0.13,0.06,0.2,0.2,0.2
		c0.03,0,0.23-1.03,0.41-1.25c0,0.23-0.02,0.36-0.03,0.58c-0.02,0.32-0.13,0.56-0.13,0.89c0,0.3,0.31,0.16,0.6,0.16
		c0.06,0,0.16-0.01,0.23-0.02l0.15-1.13c0-0.16,0.07-0.36,0.09-0.56c0.02-0.02,0.01-0.12,0.04-0.13c-0.02-0.01,0.14,0.02,0.17,0.01
		c0.14-0.04,0.15-0.08,0.28-0.13c0.06-0.03,0.24-0.06,0.28-0.15c0.03,0.01,0.05,0.12,0.09,0.14c0.05,0.03,0.15,0.09,0.2,0.11
		c0.1,0.11,0.23,0.08,0.17,0.13c0,0.07-0.01,0.12,0.02,0.2c0.08,0.3,0.05,0.43,0.04,0.43c-0.06-0.02-0.06-0.34-0.2-0.59
		c-0.03-0.05-0.07-0.08-0.1-0.1c-0.05,0.02-0.1,0-0.2-0.01c-0.11-0.01-0.19,0-0.24-0.01c-0.11,0.05,0.17-0.08-0.39,0.14
		C39.29,18.77,39.29,19.45,39.27,19.38"/>
	<path class="st20" d="M40.81,17.34l-0.14,0.27l-0.11,0.22c-0.12-0.18-0.13-0.12-0.11-0.34c0,0-0.08-0.33-0.08-0.37
		c0.16-0.03,0.33,0.04,0.34-0.12C40.72,17.1,40.79,17.24,40.81,17.34"/>
	<path class="st17" d="M40.84,17.4c0.05,0.12,0.04,0.11,0.08,0.21c0.04,0.1,0.08,0.19,0.18,0.29c-0.03,0.04-0.23,0.28-0.23,0.23
		C40.81,17.83,40.8,17.69,40.84,17.4"/>
	<path class="st17" d="M40.33,17c0.05,0.01,0.09,0.01,0.13,0.01c0-0.01,0.05,0.01,0.05,0l0.02-0.21c0,0-0.08,0-0.08,0
		c-0.06,0-0.1,0-0.13,0.01C40.33,16.82,40.33,16.96,40.33,17"/>
	<path class="st21" d="M40.28,42.7c-0.15,0-0.24,0.02-0.39,0.02c-0.11,0-0.26,0.28-0.23,0.36c0.02,0.05,0.53-0.08,0.93-0.03
		C40.7,43.04,40.47,42.69,40.28,42.7"/>
	<path class="st21" d="M40.46,43.13c-0.15,0.01-0.24,0.03-0.38,0.04c-0.11,0.01-0.2,0.34-0.15,0.42c0.03,0.05,0.53-0.15,0.94-0.11
		C40.95,43.47,40.65,43.12,40.46,43.13"/>
	<path class="st21" d="M40.82,43.59c-0.15,0.01-0.22,0.04-0.36,0.05c-0.11,0.01,0,0.31,0.1,0.37c0.06,0.04,0.48-0.14,0.91-0.13
		C41.56,43.87,41,43.56,40.82,43.59"/>
	<path class="st21" d="M37.54,43.09c0.18,0,0.28,0.02,0.46,0.02c0.13,0,0.21,0.29,0.17,0.37c-0.03,0.05-0.48-0.12-0.95-0.06
		C37.12,43.41,37.32,43.08,37.54,43.09"/>
	<path class="st21" d="M37.47,43.55c0.17,0,0.28,0.02,0.46,0.02c0.13,0,0.24,0.31,0.21,0.39c-0.03,0.05-0.62-0.1-1.09-0.05
		C36.94,43.91,37.25,43.54,37.47,43.55"/>
	<path class="st21" d="M37.24,44.09c0.17,0,0.28,0.02,0.46,0.02c0.13,0,0.28,0.25,0.25,0.32c-0.03,0.05-0.7-0.05-1.17,0
		C36.66,44.43,37.01,44.08,37.24,44.09"/>
	<path class="st17" d="M21.31,20.42c0.28-0.13,0.57,0.06,0.71,0.14c0.12,0,0.27-0.05,0.49-0.19c-0.72-0.06-0.83-0.17-1.42-0.56
		C21.2,20.03,21.23,20.2,21.31,20.42"/>
	<path class="st18" d="M13.01,24.19c0,0,0.75-0.05,0.71,0.17c-0.19,0.12-0.98,0.52-1.1,0.61c-0.18-0.06-0.28-0.12-0.3-0.33
		C12.96,24.8,12.8,24.23,13.01,24.19"/>
	<path class="st17" d="M14.36,24.13c0,0-0.44,0.11-0.5,0.15c0.06-0.18,0.15-0.34,0.04-0.5C14.01,23.81,14.3,24.07,14.36,24.13"/>
	<path class="st23" d="M6.14,33.44c-0.16-0.05-0.08-0.59-0.19-0.57C5.3,33,4.96,33.13,4.39,33.51C5.11,33.42,5.27,33.19,6.14,33.44"
		/>
	<path class="st23" d="M4.38,33.73c-0.02,0.38,0.72,0.65,1.35,0.71c0.43,0.04,0.5-0.12,0.53-0.31c0.07-0.34-0.06-0.56-0.15-0.56
		c-0.37,0-0.45,0.02-0.69,0.06l0.13,0.21C5.28,33.74,4.59,33.76,4.38,33.73"/>
	<path class="st21" d="M15.4,18.55c-0.21,0.68,0.76,1.06,0.94,1.39c0.55-1.2-0.3-1.27-0.41-1.71c-0.01,0.02-0.04,0.03-0.04,0.06
		c0,0.23,0.24,0.38,0.35,0.59c0.07,0.14,0.1,0.77-0.05,0.55c-0.21-0.31-0.74-0.39-0.74-1C15.45,18.35,15.44,18.41,15.4,18.55"/>
	<path class="st21" d="M15.54,15.93c-0.05,0.33-0.05,0.52-0.15,0.71c-0.24,0.42-0.42,0.45-0.42,0.91c0,0.17-0.01,0.15,0,0.32
		c-0.25-0.12-0.39-0.31-0.39-0.68c0-0.55,0.35-0.68,0.35-1.23c0-0.05,0-0.08,0-0.06c0,0.54-0.58,0.71-0.58,1.25
		c0,0.29,0.24,0.98,0.88,1.14c-0.04,0-0.09-0.67-0.09-0.79c0.02-0.47,0.33-0.52,0.35-0.81c0,0.09-0.02,1.26,0.69,1.41
		c-0.04-0.11,0.2-1.56,0.17-1.66c-0.07-0.27-0.15-0.23-0.17-0.4c0.02,0.24,0.12,0.51-0.19,1.59C15.58,17.49,15.54,16.33,15.54,15.93
		"/>
	<path class="st21" d="M15.22,19.9c0,0.55,0.65,0.75,0.56,1.3c0.86-1.05-0.07-1.61-0.07-1.61c0.38,0.76,0.14,1.03,0.13,1.05
		C15.72,20.31,15.36,20.3,15.22,19.9"/>
	<path class="st17" d="M18.81,8.34c0.01,0.03,0.92,0.5,0.8,1.94c0.01-0.15,0.33-0.87,0.55-1.68c0.39-1.57,0.48-4.36-1.36-4.57
		c-0.32-0.04-0.49,0.15-0.43,0.18C19.87,5.09,18.79,8.23,18.81,8.34"/>
	<path class="st17" d="M23.39,11.2c0.28-0.4,0.13-1.29,0.15-1.23c1-1.59,1.24-2.09,1.59-3.14c0,0,0.24-0.16,0.46-0.15
		c0,0,0.05,0.06,0.11,0.18c0.72,1.54-1.4,3.75-1.66,4.1C24.03,10.94,23.54,10.99,23.39,11.2"/>
	<path class="st17" d="M24.28,11.07c-0.11,0.02,1.63-1.88,1.75-3.07c-0.01,0.1,0.57,1.86-0.44,3.1c-0.77,0.95-1.09,1.56-1.09,1.56
		c-0.41,0.01-0.44,0.13-0.49,0.13C24.01,12.78,24.69,12.04,24.28,11.07"/>
	<path class="st17" d="M24.3,14.27c0.4-0.3,0.55-1.16,0.48-1.31c-0.02-0.01,0.84,0.21,0.82,1.23c-0.25,0.11-0.27,0.15-0.45,0.21
		C24.93,14.22,24.71,14.06,24.3,14.27"/>
	<path class="st17" d="M24.5,15.52c0.08-0.02,0.52-0.35,0.73-0.96c0.31-0.14,0.21-0.1,0.36-0.15c0,0.43-0.22,1.06-0.32,1.44
		c0,0-0.01,0.02-0.16,0.07C25.1,15.94,24.99,15.49,24.5,15.52"/>
	<path class="st17" d="M24.28,16.82c0.08-0.02,0.66-0.26,0.85-0.73c0,0,0.07-0.03,0.11-0.03c-0.03,0.13-0.51,1.39,0.82,1.52
		c-0.01,0,0.11,0.14,0.07,0.13c-0.2-0.04-0.9-0.2-1.1-0.26c-0.02-0.01-0.01-0.03-0.02-0.05C24.94,17.27,24.68,16.86,24.28,16.82"/>
	<path class="st17" d="M24.95,17.62c0.19,0.01,1.11,0.22,1.24,0.29c0.3,0.16-0.21,1.56-0.21,1.56c-0.54-0.14-1.15-0.39-1.79-0.57
		c-0.07-0.36-0.27-0.71-0.58-0.84C23.66,18.07,24.77,17.94,24.95,17.62"/>
	<path class="st17" d="M22.61,19.16c0.29,0.03,1.12,0.35,1.53-0.06c0.71,0.19,1.36,0.53,1.81,0.66c-0.07,0.58-0.11,1.45-0.09,1.49
		c-0.26-0.01-1.16,0.03-1.48,0c0-0.33-0.17-0.71-0.51-0.76c-0.34-0.01-0.54,0.06-0.73,0c-0.09-0.13-0.11-0.18-0.45-0.23
		C22.72,19.9,22.78,19.82,22.61,19.16"/>
	<path class="st17" d="M19.68,10.59c0.9-1.96,0.99-2.82,1.16-3.24c0.01-0.02,0.81,0.32,0.08,2.58c-0.08,0.25-0.31,0.89-0.75,1.87
		C20.32,11.48,19.83,10.79,19.68,10.59"/>
	<path class="st17" d="M20.27,12.19c0-0.02,0.63-1.46,0.89-2.16c0.23-0.64,0.93-0.96,1.04-0.84c0.5,0.61-1.02,3.16-1.22,3.55
		C20.86,11.83,20.27,12.19,20.27,12.19"/>
	<path class="st17" d="M21.29,12.68c0.34-0.53,0.51-1.04,0.88-1.69c0.23-0.4,0.58-0.87,1.07-0.82c0.41,1-1.33,2.9-1.45,2.98
		C21.87,12.64,21.42,12.56,21.29,12.68"/>
	<path class="st17" d="M22.04,13.29c1.07-1.08,1.32-2.29,1.96-2.06c0.25,0.39,0.26,1.31-1.41,2.6
		C22.68,13.26,22.05,13.28,22.04,13.29"/>
	<path class="st17" d="M22.7,14.08c0.73-0.65,1.24-1.29,1.8-1.1c0.02,0.85-0.46,1.4-1.36,1.81C23.37,14.21,22.74,14.07,22.7,14.08"
		/>
	<path class="st17" d="M23.25,14.94c1.08-0.62,1.51-0.58,1.68-0.36c-0.05,0.6-0.85,1.09-1.6,1.18
		C23.62,15.37,23.3,14.98,23.25,14.94"/>
	<path class="st17" d="M23.32,15.92c0.17-0.04,1.22-0.46,1.51,0.15c-0.21,0.47-0.59,0.71-1.7,0.68
		C23.77,16.59,23.41,15.96,23.32,15.92"/>
	<path class="st17" d="M23.02,16.93c0.76-0.08,1.38-0.05,1.62,0.43c-0.22,0.46-1.03,0.64-2.03,0.3
		C22.61,17.66,23.25,17.53,23.02,16.93"/>
	<path class="st17" d="M22.6,17.79c0.66,0.16,1.27,0.49,1.27,1.08c-0.33,0.37-0.89,0.23-1.98-0.49
		C22.72,18.37,22.58,17.87,22.6,17.79"/>
	<path class="st17" d="M21.8,18.69c0.35,0.35,0.72,0.37,0.68,1.4c-1.12-0.06-1.69-1-1.68-1.1C20.84,19,21.84,19.22,21.8,18.69"/>
	<path class="st17" d="M20.14,19.53c0.32,0.08,0.46-0.19,0.47-0.2c0.27,0.34,0.19,0.31,0.5,1.22c-0.18,0.08-0.27,0.24-0.32,0.34
		c-0.71-0.18-0.76-0.41-1.2-0.94C20,20.04,20.11,19.59,20.14,19.53"/>
	<path class="st17" d="M19.31,20.07c0.28,0.58,0.46,0.44,0.38,1.3c-0.16,0-0.3-0.06-0.5-0.1c-0.26-0.24-0.52-0.47-0.83-0.93
		c0.07-0.06,0-0.01,0.03-0.05C18.47,20.36,19.08,20.6,19.31,20.07"/>
	<path class="st24" d="M39.25,12.83c3.54,0.28,4.4-0.69,4.2-1.86c-0.06-0.34-0.29-0.64-0.63-0.71c0.42,0.94-0.42,1.1-0.26,1.13
		c0.25,0.03,0.33,0.13,0.32,0.29c-0.03,0.86-1.56,0.77-4.1,0.65c-0.94-0.04-2.09,0.69-2.96,1.49c0.02,0.05,0.23,0.38,0.83-0.19
		c-0.04-0.13-0.22-0.1-0.19-0.15c0.09-0.1,0.25-0.1,0.38-0.03c0.04-0.04,0.1-0.1,0.19-0.15c-0.04-0.12-0.24-0.13-0.21-0.18
		c0.12-0.11,0.34-0.06,0.46,0.03c0.05-0.03,0.17-0.09,0.26-0.11c0-0.15-0.24-0.21-0.19-0.27c0.17-0.09,0.42,0.02,0.54,0.17
		c0.07-0.01,0.17-0.05,0.22-0.05c0.06-0.22-0.21-0.33-0.14-0.38c0.22-0.05,0.43,0.13,0.54,0.34c0.05,0,0.22-0.02,0.28,0
		c0.08-0.23-0.2-0.41-0.11-0.46C38.94,12.36,39.13,12.6,39.25,12.83"/>
	<path class="st21" d="M16.17,35.17c-1.15,1.26,0.29,3.07-2.02,3.84c0.13-0.25,0.33-0.59,0.44-0.73c0.04-0.04,0.23-0.24,0.26-0.35
		c0.02-0.06,0.1-0.21,0.12-0.28C15.37,36.33,15.42,35.84,16.17,35.17"/>
	<path class="st21" d="M13.82,37.13c-0.01-0.05,0.02-3.34,0.02-3.68c0.04-0.26,0.2,0.15,0.21,0.29c0.02,0.19,0.04,0.37,0.06,0.62
		c0,0.05,0.17,0.14,0.17,0.19c0,0.05-0.04,2.62-0.04,2.68c0.05,0.9-0.86,1.67-1.32,1.92C13.37,38.51,13.82,37.92,13.82,37.13"/>
	<path class="st21" d="M40.54,16.76c0.08,0,0.15,0.07,0.15,0.15c0,0.08-0.07,0.15-0.15,0.15c-0.08,0-0.15-0.07-0.15-0.15
		C40.39,16.83,40.45,16.76,40.54,16.76"/>
	<path class="st17" d="M15.18,46.81c0.3,0,1.18,0.13,1.48,0.13l0.96-0.22c0,0,0.91,0.09,1.1,0.26c0,0.02-0.1,0.44-0.02,0.58
		c0.09,0.18,0.16,0.37,0.26,0.57c0.05,0.09-0.27,1.21-0.16,1.38c0.34-0.05,0.61,0.34,0.61,0.22c0-0.53-0.08-2.39-0.07-2.63
		c0-0.18,0.03-0.3,0.11-0.29c0.15,0.01,0.82-0.02,0.91,0.01c0,0,0.6-0.18,0.67-0.18l0.87,0.39c0.26,0,0.37-0.1,0.4-0.06
		c0.06,0.06,0.41,0.11,0.39,0.17c0.04,0.77-0.29,2.74-0.26,2.74c0.02,0.01,0.21,0.06,0.23,0.07c0.03,0.01,0.39-0.03,0.43-0.02
		c0.09,0.03,0.43,0.08,0.43,0.08s0.04-0.35,0.04-0.4c0,0-0.19-0.37-0.17-0.34c0.02,0.03,0.01-1.79,0.05-1.76l0.84-0.07
		c0.42,0,0.64,0.03,1.06,0.03c0.19,0,1.45-0.31,2.2-0.26c0.31,0.02,1.54-0.13,1.6-0.08c0.16,0.12,0.82,0.28,1.33,0.45l1.05-0.18
		c0.21,0,0.88,0.15,0.88,0.15l0.38-0.21c0.13,0,0.23,0.03,0.33,0.06c0.02,0-0.04,1.3-0.02,1.3c0.03,0.01,0.03,1.38,0.06,1.39
		c0.02,0,1.08,0.02,1.09,0.02c0,0,0.35-0.48,0.37-0.48l-0.09-2.41l1.6,0.06c0.35,0,1.28-0.12,1.52-0.12c0.31,0,0.78,0.07,0.78,0.07
		l0.55,0.12c0.15,0,1.16-0.69,1.16-0.69c0.26,0,1-0.11,1.17-0.11c0.25,0,2.15,0.11,2.51,0.11c0.26,0,0.39-0.09,0.65-0.09
		c0,0,0.38-0.82,0.38-0.88c0-0.1,0.46-0.19,0.46-0.19l0.06-0.63c-0.06,0,0.4-0.27,0.4-0.27s0.32-0.51,0.21-0.51
		c-0.1,0-2.47,0.78-3.56,1.04l-0.46-0.05c0,0,0.01-0.14-0.1-0.13c-0.16,0.02-0.24,0.29-1.31,0.1c-0.36-0.07-0.68-0.15-0.94-0.41
		c-0.37,0.49-1.22,0.93-1.95,0.96c-0.36,0.01-1.1-0.09-1.23-0.1c-1.1-0.09-0.69-0.89-0.69-0.89l0.58-0.64
		c-1.02,0.84-1.56,0.98-5.38,0.95c-2.04-0.02-4.63-0.19-7.9-0.26c-0.2,0-1.93,0.03-1.93,0.03c-0.08,0.42-0.69,1.12-1.94,1.12
		c-0.53,0-0.45-0.54-0.18-0.79c-0.57,0.54-1.38,0.46-1.38,0.46c-0.38-0.14-0.31-0.73-0.29-0.94c0,0-0.42-0.19-0.71-0.58
		c-0.39-0.51-0.69-1.25-0.75-1.61c-0.04-0.25-0.46-0.19-0.46-0.19c-0.16,0-0.39-0.05-0.54-0.07c-0.35-0.05-0.55-0.38-0.83-0.78
		l-0.78,1.32c0.1,0.11,0.18,0.2,0.18,0.36c0,0.2-0.05,0.66-0.7,0.43c-0.06-0.02-0.09,0-0.18,0.09c-0.11,0.11-0.05,0.22,0.06,0.37
		c0.02,0.04,3.49-0.94,3.46-0.95c0.08,0,0.42,0.85,0.64,1.12c0.08,0.09-0.62,0.2-0.8,0.24c-0.06,0.02-0.31,0.09-0.38,0.11
		c-0.15,0.05-0.31,0.07-0.47,0.12c-0.09,0.03-0.44,0.13-0.52,0.15c-0.17,0.05-0.2,0.07-0.38,0.13c-0.05,0.02-0.54,0.18-0.6,0.2
		c-0.56,0.19-1.76,0.98-2.78,1.03c-0.16,0.01-0.39,0.08-0.39-0.09c0-0.13,0.02-0.72,0.09-0.96c-0.24,0.14-1.08,0.46-1.41,0.46
		c-0.18,0-0.59-0.1-0.53-0.35c0.1-0.4,0.34-0.89,0.77-1.32c0.25-0.26,0.14-0.4,0.52-0.44c0.23-0.03,0.4-0.24,0.55-0.36
		c0.42-0.31,0.57-0.54,0.88-0.98c0.45-0.7,0.5-0.64,0.76-1.42c-0.15,0.02-0.46,0.11-0.6,0.11c-0.2,0-1.01,0.06-1.21,0.06l-0.24,0.2
		c-0.16,0.02-2.37,0.31-2.49,0.38c0,0,0.01,0.3-0.07,0.46c-0.16,0.32-0.63,0.86-0.54,0.86l0.56-0.06c0.17,0,0.36,0.09,0.51,0.16
		c-0.58,0.49-1.05,0.66-1.65,0.98c-0.48,0.25-0.32,0.46-0.5,0.97c0.07,0.07,0.15,0.09,0.29,0.22c0.1,0.03,0.78,0.22,0.73,0.33
		c-0.03,0.07-0.45,0.32-0.45,0.32c0,0.09,0.14,0.16,0.22,0.16c0.22,0,0.32,0.7,0.68,0.7c0.54,0,1.16-0.22,1.36-0.12
		c0.51,0.27,1.05,0.37,1.13,0.45c0.04,0.04-0.38-0.02-0.93-0.11c-0.02,0.11,0.23,0.57,0.2,0.72c-0.01,0.08-0.09,0.08-0.1,0.17
		c-0.05,0.47,0.09,1.28,0.23,1.64c0.28,0.03,0.76,0.3,0.88,0.37c-0.29-1.32,0.29-3.02,0.45-3.02c0.14,0,0.82-0.05,0.82-0.05
		c0.03,0.15,0.26,0.23,0.34,0.23c0.23,0,0.78,0.31,0.78,0.31l0.54-0.1c0.3,0,0.37,0.17,0.81,0.15"/>
	<line class="st25" x1="24.27" y1="21.29" x2="27.43" y2="21.29"/>
	<path class="st21" d="M3.4,29.44c0.72,1.17,0.77,1.32,1.6,1.83c-0.02-0.02,0.07-0.06,0.05-0.07C4.3,30.7,3.31,29.06,3.4,29.44"/>
	<path class="st21" d="M11.91,33.49c-0.26,0.46-1.08,1.13-1.16,1.28c-0.14,0.12-0.2,0.22-0.35,0.32c-0.02-0.03-0.04-0.04-0.04-0.08
		h-0.23v0.53c0,0.21,0.06,0.08,0.06,0.3l0.06,1.32c0,0.16,0.22,0.29,0.25-0.05c0.02-0.21,0.14-0.78,0.23-0.95
		c0,0,0.88-0.12,0.97-1.05c0.01-0.13-0.05-0.2-0.1-0.32l0.36-1.24C11.96,33.49,11.94,33.54,11.91,33.49"/>
	<path class="st17" d="M11.1,34.83c0.02,0.07,0.03,0.11,0.03,0.18c0,0.24-0.16,0.46-0.4,0.46c-0.08,0-0.06-0.11-0.15-0.11
		c-0.02,0-0.08,0.02-0.1,0.02c0,0.23-0.03,0.45,0,0.68h0.09c0.13,0,0-0.35,0.13-0.35c0.03,0,0.05,0.02,0.07,0.02
		c0.33,0,0.58-0.15,0.58-0.49c0-0.2-0.03-0.43-0.17-0.5c-0.04-0.02-0.07,0.02-0.09,0.05V34.83z"/>
	<path class="st21" d="M10.57,39.39c0.48-0.08,0.61-0.65,0.54-0.61c-0.24,0.15-0.31,0.42-0.37,0.19c-0.05-0.19-0.45-0.21-0.51,0.05
		C10.18,39.22,10.38,39.39,10.57,39.39"/>
	<path class="st21" d="M8.5,38.67c0.14,0.11,0.88,0.29,0.97,0.29c0.22,0,0.32-0.01,0.51-0.11c0.17-0.09,0.44-0.27,0.4-0.36
		C10.36,38.42,8.44,38.54,8.5,38.67"/>
	<path class="st21" d="M12.47,31.98l-0.11-0.18c0.19-0.05,0.43-0.07,0.63-0.07c0.22,0,0.34,0.05,0.55,0
		c0.02,0.02-0.1-0.25-0.06-0.26c0.44-0.13,1.11,0.51,1.11,0.51c-0.44-0.16-1.02-0.36-0.88,0.02c-0.19,0.24-1.32-0.33-1.09,0.23
		c0.06,0.16-0.55-0.22-0.9-0.22C12.02,32.03,12.17,31.98,12.47,31.98"/>
	<path class="st17" d="M35.79,33.44h-7.62v11.37c-0.27,0.01-0.67,0.15-1.08,0.46V32.34h8.7V33.44z"/>
	<path class="st17" d="M16.21,33.43h7.59V44.8c0.33,0,0.66,0.12,1.09,0.42l0-12.88h-8.68V33.43z"/>
	<path class="st26" d="M24.89,21.15h2.21v8.97h8.7v2.22h-8.7v12.93c0.16-0.11-1.11,0.53-1.11,1.39c0-0.44-0.52-1.08-1.1-1.45V32.34
		h-8.68v-2.22h8.68V21.15z"/>
	<path class="st27" d="M35.79,33.44h-7.61v11.37c0.75,0,1.46-0.01,2.21-0.01c0.91,0,1.37,0.02,2.28-0.02
		c1.12-0.05,2.26-0.06,2.75-0.69c0.35-0.46,0.36-0.88,0.38-1.44c0-0.13,0-0.45,0-0.53V33.44z"/>
	<path class="st27" d="M16.21,33.44h7.59v11.37c-0.75,0-1.44-0.01-2.18-0.01c-0.91,0-1.37,0.02-2.28-0.02
		c-1.12-0.05-2.18-0.13-2.67-0.76c-0.17-0.22-0.31-0.42-0.36-0.65c-0.05-0.24-0.09-0.43-0.1-0.73c0-0.13,0-0.45,0-0.53V33.44z"/>
	<polygon class="st17" points="24.88,21.14 23.8,21.14 23.79,28.98 16.2,28.98 16.2,30.11 24.89,30.11 	"/>
	<polygon class="st17" points="27.09,21.15 28.18,21.15 28.17,28.97 35.79,28.97 35.79,30.12 27.09,30.1 	"/>
	<path class="st27" d="M35.79,21.14v7.83l-7.62,0v-7.83C28.18,21.15,35.43,21.14,35.79,21.14"/>
	<rect x="16.2" y="21.14" class="st27" width="7.59" height="7.83"/>
	<path class="st28" d="M28.21,22.61c-0.73-0.09-0.87-1.15-0.87-1.47c0,0,0.02-0.03-0.12-0.03c-0.2,0-2.72,0.03-2.72,0.03
		c-0.05,0.64-0.21,1.25-0.99,1.56c-0.31,0.12-0.29-0.42-0.38-0.73c-0.03-0.13-0.07-0.27-0.09-0.3c-0.46-0.03-0.37,0.25-0.1,0.9
		c0.12,0.3-1.19-0.05-1.19-0.88l-0.07,0c-0.4,0-0.08,0.6-0.05,0.8c0.02,0.13-1.25,0.07-1.22-0.93c0-0.6,0.4-1.33,1.14-1.25
		c0.18,0.02,0.34,0.17,0.51,0.11c0.21-0.08,0.26-0.19,0.59-0.19c0.17,0,0.4,0.12,0.5,0.16c0.17,0.06,0.39-0.05,0.57-0.05
		c0.39,0,0.7,0.38,0.77,0.63c0.04,0.13,0.02,0.06,0.01,0.13c0.34,0,2.58,0.03,2.91,0.03c-0.01-0.31,0.15-0.82,0.82-0.7
		c0.09,0.02,0.33,0.16,0.36,0.14c0.12-0.11,0.51-0.61,1.19,0.09c0.06,0.07,0.19-0.11,0.38-0.1c0,0-0.2-0.44-0.03-0.63
		c0.15-0.16,0.07-0.17,0.2-0.35c0.18-0.25,0.42-0.55,0.67-0.71c0.21-0.14,0.5-0.21,0.74-0.25c0.25-0.05,1.35,0.06,1.61,0.06
		c0.41,0,0.66-0.18,1.07-0.18c0.09-0.11,1.33-0.02,1.55,0.25c0.13,0.16,0.79,1.36,0.82,1.44c0.23,0.64,0.75,3.27,0.82,3.47
		c0.15,0.41,0.26,0.87,0.59,1.14c0.34,0.29-0.75,1.12-0.94,0.96c-0.28-0.24-0.8-0.53-1.09-1.39c-0.07-0.21-0.15-0.48-0.18-0.7
		c-0.01-0.26-0.36-0.99-0.36-0.99c0-0.27-0.86-0.5-1.09-0.64c-0.22-0.14-0.29-0.23-0.39-0.41c-0.19,0.18-0.4,0.29-0.64,0.26
		c-0.22-0.02-0.44-0.34-0.74-0.41c-0.51-0.12-1.15-0.16-1.57-0.16c0.19,1.13-1.16,1.32-1.13,1.08c0.1-0.18,0.36-0.76-0.03-0.75
		l-0.12,0c0,0.83-1.16,1.15-1.04,0.85c0.27-0.65,0.27-0.91-0.2-0.87c-0.03,0.03-0.06,0.15-0.1,0.28
		C28.5,22.24,28.53,22.67,28.21,22.61"/>
	<path class="st18" d="M30.06,21.33c0.13-0.26,0.59-0.44,0.94-0.3c-0.04-0.02-0.2-0.38-0.46-0.44c-0.16-0.03-0.53,0.03-0.58,0.26
		C29.92,21.02,30.06,21.33,30.06,21.33"/>
	<path class="st18" d="M28.56,21.2c-0.07-0.08-0.31-0.24-0.47-0.24c-0.28,0-0.57,0.35-0.57,0.3c0.07-0.38,0.29-0.72,0.59-0.72
		c0.2,0,0.44,0.15,0.44,0.35C28.55,20.96,28.59,21.13,28.56,21.2"/>
	<path class="st18" d="M28.5,21.55c0.02-0.15-0.16-0.34-0.32-0.36c-0.27-0.03-0.53,0.16-0.53,0.29c0,0.4,0.21,0.77,0.53,0.95
		C28.41,22.56,28.37,21.89,28.5,21.55"/>
	<path class="st18" d="M29.5,21.14c-0.12,0.02-0.19,0.03-0.22,0.04c-0.16,0.07-0.33,0.15-0.33,0.27c0,0.23,0.27-0.01,0.29,0.36
		c0.01,0.21-0.11,0.31-0.13,0.51c0.05,0.14,0.59-0.18,0.63-0.69C29.77,21.33,29.72,21.12,29.5,21.14"/>
	<path class="st18" d="M30.74,21.19c0.26,0.05,0.29,0.19,0.29,0.39c0,0.37-0.18,0.69-0.66,0.71c-0.07,0,0.12-0.32,0.12-0.46
		c-0.01-0.36-0.22-0.26-0.23-0.37C30.24,21.29,30.62,21.17,30.74,21.19"/>
	<path class="st17" d="M35.99,23.43c0.04-0.09,0.02,0.07,0.02,0.07c0.06,0,0.19-0.17,0.21-0.23c0.08-0.33,0.06-0.09,0.06-0.09
		c0.16-0.05,0.28-0.51,0.28-0.51s0.26-0.3,0.24-0.61c-0.02-0.28-0.02-1.05-0.13-1.16c-0.44-0.41-1.26-0.67-1.59-0.73
		c-0.05-0.01-0.05-0.11-0.1-0.13c-0.53-0.2-1.24-0.31-1.78-0.42c-0.41-0.14-0.55-0.48-1.23-0.17l2.6,0.71
		c-0.47,0.16-0.62,0.41-0.95,1.14c-0.02,0.05,0.14,0.24,0.14,0.34c0.01,0.21-0.28-0.16-0.95-0.35c-0.44-0.12-0.83-0.11-1.1-0.25
		c-0.41-0.2-0.67-0.55-1.3-0.69c-0.09-0.02-0.14-0.31-0.02-0.44c0.43-0.46,0.42-0.51,0.93-0.86c0.3-0.21,1.13-0.15,1.55-0.15
		c0.33,0,0.55,0.07,0.88,0.07c0.34,0,0.34-0.25,1.02-0.25c0.15,0,0.24,0.02,0.39,0.02c0.26,0,0.74,0.13,1.01,0.67
		c0.17,0.34,0.5,0.87,0.6,1.27c0.22,0.86,0.67,2.73,0.67,2.73c0.34,1.1,0.86,2.22,2.09,2.45c-0.33,0.09-0.39,0.25-0.78,0.23
		C36.15,25.98,36.31,24.72,35.99,23.43"/>
	<path class="st18" d="M28.82,21.27c0.13-0.26,0.73-0.45,0.93-0.24c0,0-0.26-0.57-0.51-0.6c-0.16-0.01-0.45,0.05-0.5,0.27
		C28.69,20.88,28.82,21.27,28.82,21.27"/>
	<path class="st17" d="M10.84,46.86c-0.02,0.43-0.32,2.18-0.27,2.13c0.05-0.05-0.18,0.6-0.06,0.63l0.71-0.1
		c0.04-0.11-0.06-0.84-0.06-0.97c0-0.24,0.05-0.25,0.05-0.49c0-0.32-0.07-1.19-0.07-1.19H10.84z"/>
	<path class="st17" d="M5.94,48.17c0.09-0.21,0.1-0.69,0.06-0.99c-0.03-0.21-0.01-0.2-0.01-0.46c0-0.31,0.02-0.82,0.02-1.13
		c0-0.27-0.07-0.36-0.3-0.5C5.73,45.13,5.91,48.13,5.94,48.17"/>
	<path class="st17" d="M6.46,46.29l0.05,0.43c-0.02,0.06-0.1,0.49-0.1,0.57l0.06,0.04c0,0,0.06,1.57,0.06,1.59l0.27,0.07l-0.03-1.16
		l0.15-0.03c0,0.06,0.02-0.35,0.02-0.41L6.87,47.3c0-0.03,0.02-0.45,0.02-0.49l-0.11-0.59l-0.14-0.11L6.46,46.29z"/>
	<path class="st17" d="M13.62,49.96c0.02-0.1,0.16-1.5,0.16-1.62l-0.14-0.28l-0.06-0.65c-0.09-0.04-0.38-0.14-0.38-0.1
		c0,0,0.14,0.46,0.14,0.55l-0.11,0.11c0,0.05,0.03,0.5,0.03,0.56c0,0.09-0.08,0.07-0.08,0.07l0.03,0.56c0,0-0.09,0.76-0.09,0.84"/>
	<path class="st17" d="M11.81,48.55c0,0-0.02,0.51-0.02,0.59l0.07,0.01c0,0,0.01,0.74-0.01,0.73c-0.02-0.01,0.23,0.06,0.23,0.06
		l0.01-0.35c0,0,0.13-0.41,0.13-0.47c0,0-0.02-0.43-0.02-0.47l-0.07,0.01l0.02-0.18c0.02-0.04,0.21-1.28,0.21-1.28l-0.33-0.11
		l0.02,1.33L11.81,48.55z"/>
	<path class="st17" d="M15.26,47.1c0.04,0.08,0.02,1.15,0,1.2l-0.08,0.02c0,0,0.13,0.71,0.13,0.85c0,0-0.13,0.51-0.13,0.66
		l0.47,0.07l0.01-0.2l0.11-0.01c0-0.06-0.04-0.49-0.04-0.49c0-0.03-0.01-0.48-0.01-0.53l0.04-0.62l-0.22-0.06v-0.79
		C15.54,47.19,15.29,47.14,15.26,47.1"/>
	<path class="st17" d="M24.45,47.65c0,0-0.42,0.07-0.42,0c0,0.1,0.07,0.9,0.06,0.96c-0.02,0.08,0,0.33,0,0.42l0.12,0.07
		c0,0-0.03,0.73-0.02,0.94l0.35,0.05c0.05-0.12,0.05-0.33,0.05-0.41l0.04-0.82c0-0.04,0-0.44,0.01-0.48c0-0.02,0.08-0.49,0.08-0.49
		l-0.12,0.01"/>
	<path class="st17" d="M7.66,46.77l0.05,0.66C7.68,47.49,7.6,47.92,7.6,48l0.07,0.04c0,0-0.06,1.39-0.07,1.41h0.58l-0.11-0.93
		c0,0,0.13-0.05,0.13-0.04c0,0.06,0.06-1.8,0.06-1.8"/>
	<path class="st17" d="M26.3,48.41c-0.03,0.08-0.03,0.48-0.03,0.48c-0.02,0.03,0.08,0.3,0.08,0.45c0,0.02-0.02,0.23-0.04,0.25
		c0,0,0.14,0.5,0.18,0.53c0,0,0.25,0.03,0.25-0.01c0,0-0.05-0.38-0.04-0.45c0-0.04,0.11-0.96,0.11-0.96l-0.14-0.31
		c0-0.19-0.04-0.74-0.03-0.82c-0.06,0.02-0.25,0.03-0.25,0.03c0,0.02,0.01,0.03,0.01,0.04"/>
	<path class="st17" d="M40.43,46.81c-0.02,0.08,0.22,1.5,0.22,1.5c-0.02,0.03,0.1,0,0.1,0.03c0,0.15-0.04,0.65-0.06,0.66
		c0,0,0.09,0.68,0.12,0.71c0,0,0.38,0.04,0.38,0c0,0-0.12-0.57-0.12-0.64c0-0.04,0.12-0.96,0.12-0.96c0-0.09-0.14-0.22-0.14-0.31
		c0-0.19-0.11-0.92-0.1-1"/>
	<path class="st17" d="M38.3,47.5c-0.02,0.08-0.09,1.33-0.09,1.36v0.42c0,0.02-0.03,0.84-0.05,0.86c0,0,0.19,0,0.22,0.03
		c0,0,0.41,0.07,0.41,0.03c0,0-0.12-0.57-0.12-0.64c0-0.04-0.01-0.92-0.01-0.92c0-0.09,0.14-0.92,0.14-1.01"/>
	<path class="st17" d="M43.36,49.51c0-0.18,0-1.4,0-1.4c-0.01-0.03-0.03-0.31-0.03-0.31c-0.1,0.01,0.14-0.85,0.06-0.85
		c-0.25,0-0.73-0.1-0.73-0.1s0.05,0.33,0.06,0.41c0.06,0.48,0.09,1.38,0.09,1.38c0,0.11-0.06,0.71-0.06,0.82"/>
	<path class="st17" d="M31.74,47.63C31.71,47.71,31.83,49,31.83,49c-0.02,0.03,0.1,0,0.1,0.03c0,0.15-0.02,0.26-0.02,0.41
		c0,0.02-0.02,0.24-0.04,0.25c0,0,0.09,0.68,0.12,0.71c0,0,0.38,0.04,0.38,0c0,0-0.11-0.57-0.11-0.64c0-0.04,0.11-1.09,0.11-1.09
		c0-0.09-0.14-0.22-0.14-0.31c0-0.19,0.03-0.56,0.04-0.64"/>
	<path class="st17" d="M44.63,46.83c-0.01,0.08,0.1,1.1,0.1,1.1c-0.01,0.03,0.04,0,0.04,0.03c0,0.15-0.01,0.27-0.01,0.42
		c0,0.02-0.01,0.23-0.02,0.25c0,0,0.04,0.68,0.05,0.71c0,0,0.19-0.33,0.19-0.37c0,0-0.07-0.2-0.07-0.27c0-0.04,0.05-0.96,0.05-0.96
		c0-0.09-0.06-0.22-0.06-0.31c0-0.19-0.05-0.92-0.04-1"/>
	<path class="st17" d="M29.91,48.79c-0.04,0,0.22-1.03,0.12-1.02c0,0-0.44-0.2-0.57-0.2c-0.09,0.05,0.08,0.6-0.01,0.49
		c0,0,0,0.68,0.02,0.74c0.06,0.3,0.1,0.63,0.1,0.72c0,0.1,0.11,0.23,0.11,0.23c0.02,0.11-0.13,0.35-0.13,0.46
		c0.08,0,0.45,0.21,0.52,0.2C30.16,50.42,30.04,48.78,29.91,48.79"/>
	<path class="st17" d="M28.35,47.46c-0.07,0-0.55,0.03-0.63,0.03c-0.1,0,0.13,1.36,0.25,1.36c0.04,0-0.26,1.12-0.15,1.12
		c0,0,0.44-0.02,0.56-0.02"/>
	<path class="st18" d="M21.63,21.39c-0.14-0.26-0.61-0.48-0.94-0.32c0.04-0.02,0.19-0.31,0.45-0.47c0.07-0.04,0.66-0.23,0.59,0.31
		C21.71,21.07,21.63,21.39,21.63,21.39"/>
	<path class="st18" d="M23.2,21.26c0.07-0.08,0.33-0.24,0.5-0.24c0.29,0,0.6,0.35,0.59,0.3c-0.08-0.38-0.31-0.72-0.62-0.72
		c-0.21,0-0.46,0.15-0.46,0.35C23.21,21.02,23.17,21.18,23.2,21.26"/>
	<path class="st18" d="M23.27,21.6c-0.02-0.15,0.17-0.34,0.34-0.36c0.28-0.03,0.55,0.16,0.55,0.29c0,0.4-0.22,0.77-0.56,0.95
		C23.36,22.61,23.4,21.95,23.27,21.6"/>
	<path class="st18" d="M22.21,21.2c0.13,0.01,0.2,0.03,0.23,0.04c0.17,0.07,0.35,0.15,0.35,0.26c0,0.14-0.29-0.01-0.31,0.36
		c-0.01,0.21,0.11,0.31,0.13,0.51c-0.05,0.14-0.62-0.18-0.66-0.69C21.94,21.38,21.98,21.17,22.21,21.2"/>
	<path class="st18" d="M20.91,21.25c-0.27,0.05-0.3,0.19-0.3,0.39c0,0.37,0.19,0.69,0.69,0.71c0.07,0-0.13-0.31-0.12-0.46
		c0.01-0.36,0.23-0.26,0.24-0.37C21.44,21.35,21.04,21.22,20.91,21.25"/>
	<path class="st18" d="M22.93,21.32c-0.14-0.26-0.76-0.45-0.98-0.24c0,0,0.27-0.57,0.54-0.6c0.17-0.01,0.48,0.05,0.53,0.27
		C23.06,20.93,22.93,21.32,22.93,21.32"/>
	<path class="st18" d="M41.52,28.35l0.41-0.05c0.01,0.49,0,0.49,0,0.63c0,0-0.34,0.06-0.4,0.04C41.5,28.96,41.52,28.35,41.52,28.35"
		/>
	<path class="st22" d="M41.52,28.35l0.41-0.05c0.01,0.49,0,0.49,0,0.63c0,0-0.34,0.06-0.4,0.04C41.5,28.96,41.52,28.35,41.52,28.35z
		"/>
	<path class="st18" d="M41.53,29.58l0.4-0.04c0.01,0.49,0,0.44,0,0.57c0,0-0.34,0.07-0.39,0.05C41.51,30.15,41.53,29.58,41.53,29.58
		"/>
	<path class="st22" d="M41.53,29.58l0.4-0.04c0.01,0.49,0,0.44,0,0.57c0,0-0.34,0.07-0.39,0.05C41.51,30.15,41.53,29.58,41.53,29.58
		z"/>
	<path class="st18" d="M41.53,30.8l0.4-0.04c0.01,0.49,0,0.44,0,0.58c0,0-0.34,0.07-0.39,0.05C41.51,31.36,41.53,30.8,41.53,30.8"/>
	<path class="st22" d="M41.53,30.8l0.4-0.04c0.01,0.49,0,0.44,0,0.58c0,0-0.34,0.07-0.39,0.05C41.51,31.36,41.53,30.8,41.53,30.8z"
		/>
	<path class="st18" d="M41.68,26.31c-0.08,0.05-0.29,0.07-0.39,0.08c0,0.23-0.04,0.8-0.02,0.95c0.15-0.02,0.38-0.01,0.41-0.13
		C41.68,27.09,41.69,26.39,41.68,26.31"/>
	<path class="st22" d="M41.68,26.31c-0.08,0.05-0.29,0.07-0.39,0.08c0,0.23-0.04,0.8-0.02,0.95c0.15-0.02,0.38-0.01,0.41-0.13
		C41.68,27.09,41.69,26.39,41.68,26.31z"/>
	<path class="st18" d="M42.52,26.1c-0.08,0.04-0.23,0.09-0.32,0.11c0,0.21-0.03,0.74-0.02,0.88c0.18-0.07,0.32-0.11,0.35-0.22
		c0.01-0.12,0-0.28-0.01-0.54C42.51,26.27,42.54,26.17,42.52,26.1"/>
	<path class="st19" d="M42.52,26.1c-0.08,0.04-0.23,0.09-0.32,0.11c0,0.21-0.03,0.74-0.02,0.88c0.18-0.07,0.32-0.11,0.35-0.22
		c0.01-0.12,0-0.28-0.01-0.54C42.51,26.27,42.54,26.17,42.52,26.1z"/>
	<path class="st18" d="M41.3,32.27c0,0,0.23-0.06,0.24-0.02c0.01,0.03,0.01,0.16,0.01,0.16c0.01,0.02,0.1,0.03,0.2,0.02
		c0.11-0.01,0.18-0.02,0.17-0.08c0,0,0-0.09-0.01-0.14c0-0.02,0.22-0.04,0.24-0.02c0.02,0.02,0.04,0.59,0.04,0.77
		c0,0.11-0.03,0.28-0.39,0.31c-0.39,0.03-0.5-0.13-0.5-0.21C41.29,32.82,41.26,32.28,41.3,32.27"/>
	<path class="st20" d="M40.54,15.63c0.1,0.19,0.18,0.39,0.19,0.38c0.04,0.15-0.04,0.18-0.14,0.23c-0.19,0.11-0.3,0.16-0.4,0.18
		c-0.01,0.08,0.01,0.19,0,0.26c-0.01,0.05-0.07,0.05-0.05,0.07c0.02,0.02,0.04,0.31,0.05,0.33c0.06,0.21,0.06,0.48,0.07,0.52
		c0.04,0.09,0.11,0.18,0.06,0.25l-0.12,0.05l-0.18,0.01l-0.15-0.05c0-0.02-0.03-0.04-0.05-0.05c-0.14-0.04-0.39-0.1-0.34-0.28
		c-0.04,0.02-0.08,0.2-0.08,0.2c-0.07,0.16-0.36,0.48-0.33,0.7c0,0-0.94,0-1.25-0.49c-0.06-0.09-0.03-0.24-0.03-0.48
		c0,0,0.03-0.35,0.07-0.44c0.03-0.11,0.09-0.03,0.1-0.11l0.14-0.68l-0.12-0.01l0.31-0.83l0.72,0.21c0.21-0.19,0.48-0.3,0.76-0.3
		S40.41,15.37,40.54,15.63"/>
	<path class="st21" d="M38.64,16.78c-0.03-0.02-0.32-0.08-0.35-0.09c-0.01,0,0.06-0.09,0.15-0.22c0.03,0.01,0.05-0.08,0.08-0.08
		c-0.02,0.04,0.05,0.05-0.01,0.14c-0.04,0.05,1.24,0.07,1.24,0.07l-0.05-0.21c0.03,0.01,0.16,0.27,0.16,0.27s0.01,0.11-0.22,0.11
		c0,0.19,0.11,0.45,0.11,0.49c0,0.02,0.1,0.25,0.09,0.26c-0.02,0.01-0.41-0.43-0.33-0.46C38.96,17.24,38.78,16.89,38.64,16.78"/>
	<path class="st17" d="M38.84,16.8c0,0,0.17,0.26,0.32,0.24c0.03,0,0.34,0.03,0.27-0.24C39.43,16.8,39,16.82,38.84,16.8"/>
	<path class="st21" d="M39.22,16.76c0.08,0,0.15,0.07,0.15,0.15s-0.06,0.15-0.15,0.15c-0.08,0-0.15-0.06-0.15-0.15
		S39.13,16.76,39.22,16.76"/>
	<path class="st21" d="M38.18,15.64c-0.24,0.27-0.44,0.74-0.33,0.74L38,16.4c-0.02,0.25-0.03,0.32-0.03,0.32
		c0.03,0.1,0.1-0.1,0.17-0.34c0.02-0.08,0.05-0.17-0.13-0.16C38.07,16.12,38.27,15.54,38.18,15.64"/>
	<path class="st29" d="M35.77,22.51l0,19.7c0,0.08,0,0.4,0,0.53c-0.02,0.57-0.03,0.99-0.38,1.44c-0.49,0.63-1.62,0.65-2.74,0.69
		c-0.91,0.04-3.74,0.02-4.49,0.02c-0.93,0.01-2.18,0.97-2.18,1.82c0-0.43-0.69-1.8-2.16-1.82c-0.75,0-3.59,0.02-4.49-0.02
		c-1.12-0.05-2.26-0.07-2.75-0.69c-0.35-0.46-0.36-0.87-0.38-1.44c0-0.13,0-0.45,0-0.53l-0.02-21.15h4.33"/>
	<line class="st29" x1="24.36" y1="21.06" x2="27.48" y2="21.06"/>
	<path class="st20" d="M34.23,21.51c-0.19-0.16-0.31-0.16-0.3-0.2c0.1-0.4,0.43-1.03,0.86-1.03c0.54,0,1.55,0.51,1.69,0.71
		c0.07,0.1,0,0.47-0.05,0.55c0.01,0.07,0,0.09,0,0.16c0,0.16,0,0.16-0.14,0.3c-0.03,0.03-0.05,0.21-0.07,0.26
		c-0.04,0.09-0.11,0.14-0.16,0.22c-0.05,0.08-0.08,0.76-0.26,0.71c-0.06-0.02-0.02-0.06-0.03-0.16c0-0.35,0.04-0.61-0.08-0.65
		c-0.15-0.05-1.07-0.47-1.2-0.55C34.32,21.7,34.4,21.66,34.23,21.51"/>
</g>
<polygon class="st30" points="90.89,19.89 88.39,19.89 88.39,21.69 90.57,21.69 90.57,22.75 88.39,22.75 88.39,24.66 91.07,24.66 
	91.07,25.74 86.92,25.74 86.92,18.82 91.05,18.82 "/>
<g>
	<defs>
		<rect id="SVGID_29_" x="-35.44" y="-34.45" width="363.46" height="125.08"/>
	</defs>
	<clipPath id="SVGID_30_">
		<use xlink:href="#SVGID_29_"  style="overflow:visible;"/>
	</clipPath>
	<path class="st31" d="M99.18,21.88v3.86h-1.42v-3.62c0-0.61-0.24-0.78-0.52-0.78c-0.39,0-0.65,0.27-0.91,0.74v3.66h-1.42v-3.62
		c0-0.61-0.24-0.78-0.52-0.78c-0.39,0-0.66,0.27-0.92,0.74v3.66h-1.42v-5.3h1.24l0.1,0.67c0.39-0.53,0.88-0.83,1.54-0.83
		c0.6,0,1.06,0.31,1.27,0.87c0.41-0.56,0.9-0.87,1.58-0.87C98.61,20.28,99.18,20.88,99.18,21.88"/>
	<path class="st31" d="M105.32,23.09c0,1.64-0.79,2.81-2.11,2.81c-0.58,0-1.06-0.26-1.39-0.69l-0.08,0.53h-1.26v-7.4l1.42-0.16v2.84
		c0.33-0.45,0.85-0.73,1.45-0.73C104.6,20.28,105.32,21.32,105.32,23.09 M103.84,23.09c0-1.38-0.4-1.76-0.96-1.76
		c-0.42,0-0.74,0.28-0.98,0.69v2.26c0.22,0.36,0.54,0.57,0.91,0.57C103.42,24.85,103.84,24.38,103.84,23.09"/>
	<path class="st31" d="M110.77,24.94l-0.3,0.94c-0.6-0.05-1-0.25-1.22-0.78c-0.38,0.58-0.96,0.8-1.59,0.8
		c-1.06,0-1.72-0.68-1.72-1.64c0-1.16,0.87-1.79,2.44-1.79h0.61v-0.26c0-0.66-0.28-0.87-0.95-0.87c-0.35,0-0.86,0.1-1.4,0.28
		l-0.32-0.95c0.66-0.26,1.36-0.39,1.96-0.39c1.47,0,2.1,0.65,2.1,1.85v2.14C110.38,24.7,110.51,24.85,110.77,24.94 M108.99,24.29
		v-1.01h-0.47c-0.77,0-1.15,0.28-1.15,0.86c0,0.47,0.24,0.74,0.68,0.74C108.46,24.88,108.77,24.67,108.99,24.29"/>
	<path class="st31" d="M115.48,20.92l-0.54,0.81c-0.43-0.27-0.86-0.42-1.32-0.42c-0.47,0-0.73,0.19-0.73,0.48
		c0,0.31,0.18,0.45,1.11,0.72c1.06,0.29,1.66,0.73,1.66,1.67c0,1.1-1.03,1.72-2.29,1.72c-0.92,0-1.66-0.31-2.16-0.77l0.7-0.78
		c0.4,0.31,0.89,0.52,1.42,0.52c0.53,0,0.87-0.22,0.87-0.58c0-0.4-0.19-0.53-1.17-0.8c-1.07-0.3-1.57-0.83-1.57-1.63
		c0-0.9,0.82-1.58,2.1-1.58C114.33,20.28,114.98,20.52,115.48,20.92"/>
	<path class="st31" d="M120.17,20.92l-0.54,0.81c-0.43-0.27-0.86-0.42-1.32-0.42c-0.47,0-0.73,0.19-0.73,0.48
		c0,0.31,0.18,0.45,1.11,0.72c1.06,0.29,1.66,0.73,1.66,1.67c0,1.1-1.03,1.72-2.29,1.72c-0.92,0-1.66-0.31-2.16-0.77l0.7-0.78
		c0.4,0.31,0.89,0.52,1.42,0.52c0.53,0,0.87-0.22,0.87-0.58c0-0.4-0.19-0.53-1.17-0.8c-1.07-0.3-1.57-0.83-1.57-1.63
		c0-0.9,0.82-1.58,2.1-1.58C119.02,20.28,119.67,20.52,120.17,20.92"/>
	<path class="st31" d="M123.87,25.75c-0.41,1.29-1.24,2.08-2.86,2.19l-0.15-1.02c1.05-0.14,1.41-0.46,1.7-1.18h-0.49l-1.65-5.3h1.51
		l1.06,4.38l1.12-4.38h1.47L123.87,25.75z"/>
	<path class="st31" d="M133.46,23.09c0,1.68-0.95,2.81-2.54,2.81c-1.58,0-2.54-1.05-2.54-2.81c0-1.69,0.95-2.81,2.55-2.81
		C132.51,20.28,133.46,21.33,133.46,23.09 M129.86,23.09c0,1.22,0.36,1.75,1.06,1.75c0.7,0,1.06-0.54,1.06-1.75
		c0-1.22-0.36-1.75-1.05-1.75C130.22,21.34,129.86,21.88,129.86,23.09"/>
	<path class="st31" d="M136.14,19.95v0.49h1.26l-0.16,1h-1.1v4.3h-1.42v-4.3h-0.84v-1h0.84v-0.53c0-0.98,0.65-1.74,1.94-1.74
		c0.54,0,1.01,0.13,1.4,0.32l-0.39,0.94c-0.32-0.15-0.61-0.2-0.86-0.2C136.33,19.23,136.14,19.45,136.14,19.95"/>
	<rect x="140.52" y="18.82" class="st31" width="1.47" height="6.92"/>
	<path class="st31" d="M147.4,20.92l-0.62,0.84c-0.34-0.26-0.65-0.38-1.04-0.38c-0.71,0-1.13,0.51-1.13,1.74
		c0,1.23,0.45,1.64,1.12,1.64c0.39,0,0.66-0.12,1.05-0.37l0.62,0.89c-0.48,0.39-1.04,0.62-1.74,0.62c-1.58,0-2.55-1.08-2.55-2.77
		c0-1.68,0.98-2.85,2.53-2.85C146.35,20.28,146.9,20.49,147.4,20.92"/>
	<path class="st31" d="M152.51,23.52h-3.31c0.1,1.02,0.58,1.32,1.26,1.32c0.45,0,0.83-0.14,1.29-0.46l0.59,0.8
		c-0.52,0.42-1.18,0.72-2.01,0.72c-1.7,0-2.59-1.12-2.59-2.78c0-1.6,0.86-2.84,2.41-2.84c1.5,0,2.39,1,2.39,2.69
		C152.54,23.15,152.52,23.37,152.51,23.52 M151.13,22.57c0-0.8-0.27-1.32-0.95-1.32c-0.56,0-0.91,0.38-0.98,1.38h1.93V22.57z"/>
	<path class="st31" d="M153.5,24.46v-6.13l1.42-0.16v6.25c0,0.23,0.08,0.35,0.29,0.35c0.11,0,0.2-0.02,0.28-0.06l0.29,1.01
		c-0.23,0.1-0.55,0.18-0.91,0.18C154.01,25.9,153.5,25.38,153.5,24.46"/>
	<path class="st31" d="M160.95,24.94l-0.3,0.94c-0.6-0.05-1-0.25-1.22-0.78c-0.38,0.58-0.96,0.8-1.59,0.8
		c-1.06,0-1.72-0.68-1.72-1.64c0-1.16,0.87-1.79,2.44-1.79h0.61v-0.26c0-0.66-0.28-0.87-0.95-0.87c-0.35,0-0.86,0.1-1.4,0.28
		l-0.32-0.95c0.66-0.26,1.36-0.39,1.96-0.39c1.47,0,2.1,0.65,2.1,1.85v2.14C160.56,24.7,160.69,24.85,160.95,24.94 M159.17,24.29
		v-1.01h-0.47c-0.77,0-1.15,0.28-1.15,0.86c0,0.47,0.24,0.74,0.68,0.74C158.64,24.88,158.95,24.67,159.17,24.29"/>
	<path class="st31" d="M166.41,21.88v3.86h-1.42v-3.62c0-0.61-0.23-0.78-0.58-0.78c-0.41,0-0.73,0.27-1.03,0.74v3.66h-1.42v-5.3
		h1.24l0.11,0.67c0.42-0.53,0.94-0.83,1.61-0.83C165.85,20.28,166.41,20.88,166.41,21.88"/>
	<path class="st31" d="M172.27,18.33v7.41h-1.25l-0.08-0.65c-0.32,0.46-0.81,0.81-1.52,0.81c-1.33,0-2.01-1.12-2.01-2.81
		c0-1.64,0.84-2.81,2.15-2.81c0.54,0,0.97,0.22,1.29,0.53v-2.64L172.27,18.33z M170.85,24.2v-2.37c-0.26-0.31-0.53-0.5-0.92-0.5
		c-0.62,0-1.04,0.52-1.04,1.76c0,1.33,0.38,1.75,0.95,1.75C170.27,24.84,170.57,24.62,170.85,24.2"/>
	<path class="st31" d="M88.08,37.74h-0.86v-6.88h0.86V37.74z M89.13,34.01l2.85,3.73h-1.07l-2.78-3.68l2.68-3.2h0.99L89.13,34.01z"
		/>
	<path class="st31" d="M96.84,37.27l-0.2,0.59c-0.51-0.07-0.84-0.28-0.98-0.81c-0.37,0.56-0.93,0.81-1.58,0.81
		c-1.04,0-1.66-0.65-1.66-1.59c0-1.12,0.84-1.72,2.28-1.72h0.86v-0.42c0-0.78-0.37-1.08-1.13-1.08c-0.4,0-0.88,0.1-1.42,0.29
		l-0.21-0.62c0.63-0.24,1.2-0.36,1.78-0.36c1.25,0,1.82,0.64,1.82,1.73v2.44C96.4,37.02,96.56,37.17,96.84,37.27 M95.56,36.36v-1.25
		h-0.75c-0.98,0-1.5,0.37-1.5,1.12c0,0.64,0.33,0.99,0.96,0.99C94.84,37.22,95.26,36.93,95.56,36.36"/>
	<path class="st31" d="M104.97,33.97v3.77h-0.84v-3.65c0-0.81-0.34-1.07-0.78-1.07c-0.58,0-0.92,0.39-1.29,0.97v3.75h-0.84v-3.65
		c0-0.81-0.34-1.07-0.78-1.07c-0.58,0-0.93,0.39-1.29,0.97v3.75h-0.84v-5.26h0.72l0.07,0.8c0.37-0.55,0.86-0.92,1.55-0.92
		c0.65,0,1.13,0.36,1.32,0.97c0.38-0.58,0.88-0.97,1.58-0.97C104.41,32.36,104.97,32.98,104.97,33.97"/>
	<path class="st31" d="M111.11,35.1c0,1.61-0.71,2.76-2.05,2.76c-0.6,0-1.07-0.21-1.41-0.63v2.52l-0.84,0.1v-7.37h0.72l0.07,0.73
		c0.38-0.54,0.94-0.85,1.57-0.85C110.54,32.36,111.11,33.43,111.11,35.1 M110.2,35.1c0-1.4-0.41-2.07-1.23-2.07
		c-0.59,0-1.02,0.4-1.32,0.85v2.61c0.29,0.43,0.7,0.68,1.21,0.68C109.73,37.17,110.2,36.51,110.2,35.1"/>
	<path class="st31" d="M116.54,37.27l-0.2,0.59c-0.51-0.07-0.84-0.28-0.98-0.81c-0.37,0.56-0.93,0.81-1.58,0.81
		c-1.04,0-1.66-0.65-1.66-1.59c0-1.12,0.84-1.72,2.28-1.72h0.86v-0.42c0-0.78-0.37-1.08-1.13-1.08c-0.4,0-0.88,0.1-1.42,0.29
		l-0.21-0.62c0.63-0.24,1.2-0.36,1.78-0.36c1.25,0,1.82,0.64,1.82,1.73v2.44C116.1,37.02,116.26,37.17,116.54,37.27 M115.26,36.36
		v-1.25h-0.75c-0.98,0-1.5,0.37-1.5,1.12c0,0.64,0.33,0.99,0.96,0.99C114.54,37.22,114.96,36.93,115.26,36.36"/>
	<path class="st31" d="M117.9,36.74v-6.38l0.84-0.1v6.46c0,0.29,0.1,0.44,0.35,0.44c0.13,0,0.25-0.02,0.35-0.06l0.22,0.59
		c-0.19,0.1-0.44,0.17-0.7,0.17C118.32,37.86,117.9,37.47,117.9,36.74"/>
	<path class="st31" d="M124.79,37.27l-0.2,0.59c-0.51-0.07-0.84-0.28-0.98-0.81c-0.37,0.56-0.93,0.81-1.58,0.81
		c-1.04,0-1.66-0.65-1.66-1.59c0-1.12,0.84-1.72,2.28-1.72h0.86v-0.42c0-0.78-0.37-1.08-1.13-1.08c-0.4,0-0.88,0.1-1.42,0.29
		l-0.21-0.62c0.63-0.24,1.2-0.36,1.78-0.36c1.25,0,1.82,0.64,1.82,1.73v2.44C124.35,37.02,124.51,37.17,124.79,37.27 M123.51,36.36
		v-1.25h-0.75c-0.98,0-1.5,0.37-1.5,1.12c0,0.64,0.33,0.99,0.96,0.99C122.79,37.22,123.21,36.93,123.51,36.36"/>
</g>
</svg>
