<?xml version="1.0" encoding="UTF-8"?> <svg xmlns="http://www.w3.org/2000/svg" width="440" height="320" viewBox="0 0 440 320" fill="none"><path d="M37.4009 243.537C54.8287 243.537 67.5382 234.523 67.5382 213.549C67.5382 172.039 18.0503 189.767 18.0503 160.066C18.0503 145.447 29.7234 141.602 40.6601 141.602C53.8059 141.602 58.9743 147.22 61.4971 147.22C63.4198 147.22 64.8926 144.411 64.8926 142.938C64.8926 138.506 52.4832 134.511 40.8101 134.511C27.9642 134.511 10.6728 139.243 10.6728 160.666C10.6728 197.158 60.1607 178.844 60.1607 214.286C60.1607 228.918 51.7331 236.446 36.6645 236.446C17.4639 236.446 14.8048 224.036 11.3956 224.036C9.92279 224.036 8 226.259 8 228.168C8 232.9 18.4867 243.537 37.4009 243.537Z" fill="white"></path><path d="M109.048 243.537C122.194 243.537 130.322 237.632 130.322 234.523C130.322 233.036 128.699 230.977 126.926 230.977C123.831 230.977 121.458 236.882 109.348 236.882C95.6025 236.882 85.5658 229.054 85.5658 216.345V210.14H119.835C126.19 210.14 132.395 209.84 132.395 198.767C132.395 183.248 119.835 172.025 105.503 172.025C90.5842 172.025 78.3247 184.135 78.3247 198.617V216.195C78.3247 232.6 91.0205 243.537 109.048 243.537ZM85.5522 198.031C85.5522 187.544 94.2661 178.53 105.489 178.53C117.312 178.53 125.29 188.717 125.29 198.767C125.29 203.199 123.667 204.085 117.012 204.085H85.5386V198.031H85.5522Z" fill="white"></path><path d="M167.686 304.084C154.691 304.084 150.259 297.443 147.449 297.443C145.827 297.443 144.49 299.516 144.49 301.138C144.49 306.157 155.863 310.889 167.386 310.889C182.414 310.889 190.46 303.02 193.651 292.302H186.451C184.241 299.12 179.128 304.084 167.686 304.084Z" fill="white"></path><path d="M195.315 175.871C195.315 174.098 193.842 172.912 191.769 172.912C189.847 172.912 188.224 174.085 188.224 175.871V183.262C184.965 177.507 178.174 172.039 168.423 172.039C153.941 172.039 141.832 184.149 141.832 199.067V216.059C141.832 230.391 154.091 243.387 168.123 243.387C176.987 243.387 184.815 238.218 188.06 232.164V252.523H195.315V175.871ZM188.074 221.077C188.074 225.809 179.796 236.596 168.723 236.596C158.237 236.596 149.073 226.545 149.073 216.059V199.067C149.073 188.867 158.087 178.83 168.873 178.83C178.474 178.83 188.074 186.358 188.074 199.067V221.077Z" fill="white"></path><path d="M227.375 243.537C237.125 243.537 244.503 238.068 249.535 232.314V239.405C249.535 241.177 251.157 242.65 253.08 242.65C255.153 242.65 256.626 241.177 256.626 239.405V200.404C256.626 185.785 249.985 172.039 231.07 172.039C221.906 172.039 212.02 175.585 212.02 178.83C212.02 180.303 213.206 182.812 215.265 182.812C217.338 182.812 221.32 178.68 230.77 178.68C244.216 178.68 249.385 190.053 249.385 200.404V204.249H241.407C220.87 204.249 206.988 208.231 206.988 224.036C206.988 237.332 215.988 243.537 227.375 243.537ZM242.143 210.154H249.385V221.091C249.385 227.595 238.748 237.046 228.398 237.046C220.42 237.046 214.215 232.914 214.215 223.75C214.215 211.477 227.661 210.154 242.143 210.154Z" fill="white"></path><path d="M277.299 242.65C279.372 242.65 280.994 241.027 280.994 239.405V132.601C280.994 130.829 279.372 129.492 277.299 129.492C275.226 129.492 273.753 130.815 273.753 132.601V239.405C273.753 241.027 275.226 242.65 277.299 242.65Z" fill="white"></path><path d="M8.69482 257.473C8.69482 256.751 9.33576 256.41 9.97668 256.41H25.1135C25.8363 256.41 26.1772 257.051 26.1772 257.651C26.1772 258.373 25.7953 259.014 25.1135 259.014H11.5176V270.769H18.2678C18.9088 270.769 19.2906 271.369 19.2906 272.051C19.2906 272.61 18.9906 273.21 18.2678 273.21H11.5176V286.588C11.5176 287.311 10.7949 287.652 10.1131 287.652C9.39031 287.652 8.70847 287.311 8.70847 286.588V257.473H8.69482Z" fill="white"></path><path d="M36.4323 275.433V286.547C36.4323 287.188 35.8732 287.665 35.0687 287.665C34.3459 287.665 33.7868 287.202 33.7868 286.547V284.665C32.2868 286.37 30.2003 287.952 27.3366 287.952C24.0911 287.952 21.5273 286.152 21.5273 282.306C21.5273 277.642 25.5502 276.456 31.4822 276.456H33.6641V275.433C33.6641 272.692 32.3004 269.624 28.6185 269.624C25.7547 269.624 24.732 270.865 24.0502 270.865C23.3274 270.865 22.9319 270.006 22.9319 269.365C22.9319 268.246 25.9729 267.183 28.7003 267.183C34.4277 267.183 36.4323 271.165 36.4323 275.433ZM33.6504 278.379H31.8504C27.923 278.379 24.282 278.76 24.282 282.061C24.282 284.542 25.9047 285.606 28.0048 285.606C30.7458 285.606 33.6504 283.042 33.6504 281.12V278.379Z" fill="white"></path><path d="M53.4915 275.051C53.4915 271.969 51.2687 269.747 48.6232 269.747C46.1413 269.747 43.5776 271.71 43.5776 275.174V286.547C43.5776 287.106 42.9367 287.665 42.173 287.665C41.4093 287.665 40.8093 287.106 40.8093 286.547V268.465C40.8093 267.865 41.4093 267.442 42.173 267.442C42.8958 267.442 43.4958 267.865 43.4958 268.465V270.428C44.4367 268.765 46.3595 267.183 49.1823 267.183C52.0051 267.183 54.2279 268.942 55.2507 271.451C56.7507 268.547 59.2735 267.183 61.7418 267.183C65.4237 267.183 68.9284 270.087 68.9284 275.174V286.547C68.9284 287.106 68.3283 287.665 67.5238 287.665C66.801 287.665 66.1601 287.106 66.1601 286.547V275.174C66.1601 271.588 63.6373 269.747 61.2918 269.747C58.8099 269.747 56.2871 271.792 56.2871 275.01V286.602C56.2871 287.365 55.5643 287.665 54.8825 287.665C54.2416 287.665 53.5188 287.365 53.5188 286.602V275.051H53.4915Z" fill="white"></path><path d="M76.4835 259.655C76.4835 260.596 75.6653 261.455 74.6425 261.455C73.5788 261.455 72.7197 260.596 72.7197 259.655C72.7197 258.714 73.5788 257.896 74.6425 257.896C75.6653 257.91 76.4835 258.714 76.4835 259.655ZM76.0607 268.465V286.547C76.0607 287.106 75.4198 287.665 74.6561 287.665C73.8925 287.665 73.2925 287.106 73.2925 286.547V268.465C73.2925 267.865 73.8925 267.442 74.6561 267.442C75.4198 267.442 76.0607 267.865 76.0607 268.465Z" fill="white"></path><path d="M83.7106 256.069V286.547C83.7106 287.106 83.1106 287.665 82.3061 287.665C81.5424 287.665 80.9424 287.106 80.9424 286.547V256.069C80.9424 255.469 81.5424 255.046 82.3061 255.046C83.1106 255.046 83.7106 255.469 83.7106 256.069Z" fill="white"></path><path d="M86.6152 268.887C86.5333 268.765 86.4924 268.628 86.4924 268.506C86.4924 267.783 87.4743 267.183 88.197 267.183C88.6198 267.183 89.0561 267.36 89.1789 267.783L95.0291 283.52L100.538 267.783C100.716 267.36 101.097 267.183 101.479 267.183C102.161 267.183 103.184 267.742 103.184 268.546C103.184 268.628 103.184 268.806 103.102 268.887L96.4746 286.847C94.77 291.47 92.629 297.579 87.8016 297.579C87.0788 297.579 86.5197 297.279 86.5197 296.338C86.5197 295.697 86.7379 295.056 87.3788 295.056C90.0789 295.056 92.5062 291.252 93.5835 286.806L86.6152 268.887Z" fill="white"></path><path d="M113.93 257.473C113.93 256.751 114.571 256.41 115.212 256.41H130.348C131.071 256.41 131.412 257.051 131.412 257.651C131.412 258.373 131.03 259.014 130.348 259.014H116.752V270.769H123.503C124.144 270.769 124.525 271.369 124.525 272.051C124.525 272.61 124.225 273.21 123.503 273.21H116.752V286.588C116.752 287.311 116.03 287.652 115.348 287.652C114.625 287.652 113.943 287.311 113.943 286.588V257.473H113.93Z" fill="white"></path><path d="M144.449 275.174V279.838C144.449 284.065 140.645 287.965 136.281 287.965C131.958 287.965 128.208 284.12 128.208 279.838V275.174C128.208 270.892 131.835 267.183 136.281 267.183C140.645 267.183 144.449 270.769 144.449 275.174ZM141.667 275.174C141.667 272.433 139.267 269.747 136.281 269.747C133.294 269.747 130.976 272.447 130.976 275.174V279.838C130.976 282.701 133.322 285.402 136.281 285.402C139.267 285.402 141.667 282.701 141.667 279.838V275.174Z" fill="white"></path><path d="M147.954 279.919V268.506C147.954 267.987 148.554 267.442 149.358 267.442C150.081 267.442 150.722 268.001 150.722 268.506V279.919C150.722 282.701 153.068 285.388 156.068 285.388C159.013 285.388 161.413 282.742 161.413 279.919V268.465C161.413 267.905 162.054 267.442 162.818 267.442C163.582 267.442 164.182 267.905 164.182 268.465V279.919C164.182 284.201 160.459 287.952 156.054 287.952C151.581 287.965 147.954 284.161 147.954 279.919Z" fill="white"></path><path d="M171.286 286.547C171.286 287.106 170.645 287.665 169.882 287.665C169.064 287.665 168.518 287.106 168.518 286.547V268.465C168.518 267.865 169.077 267.442 169.882 267.442C170.564 267.442 171.164 267.865 171.164 268.465V270.428C172.064 268.765 174.027 267.183 176.891 267.183C180.996 267.183 184.5 270.769 184.5 275.174V286.547C184.5 287.27 183.778 287.665 183.096 287.665C182.455 287.665 181.732 287.283 181.732 286.547V275.174C181.732 272.433 179.332 269.747 176.386 269.747C173.864 269.747 171.3 271.751 171.3 275.174V286.547H171.286Z" fill="white"></path><path d="M204.164 256.069V286.547C204.164 287.106 203.605 287.665 202.842 287.665C202.119 287.665 201.519 287.106 201.519 286.547V284.665C200.578 286.424 198.314 287.952 195.669 287.952C191.605 287.952 188.1 284.065 188.1 279.824V275.16C188.1 270.756 191.564 267.169 195.751 267.169C198.573 267.169 200.496 268.751 201.396 270.415V256.055C201.396 255.455 202.037 255.032 202.855 255.032C203.605 255.046 204.164 255.469 204.164 256.069ZM190.869 279.838C190.869 282.661 193.31 285.402 196.173 285.402C199.16 285.402 201.383 282.456 201.383 281.174V275.188C201.383 271.765 198.778 269.76 196.214 269.76C193.269 269.76 190.869 272.46 190.869 275.188V279.838Z" fill="white"></path><path d="M222.206 275.433V286.547C222.206 287.188 221.647 287.665 220.842 287.665C220.12 287.665 219.56 287.202 219.56 286.547V284.665C218.06 286.37 215.974 287.952 213.11 287.952C209.865 287.952 207.301 286.152 207.301 282.306C207.301 277.642 211.324 276.456 217.256 276.456H219.438V275.433C219.438 272.692 218.074 269.624 214.392 269.624C211.528 269.624 210.506 270.865 209.824 270.865C209.101 270.865 208.706 270.006 208.706 269.365C208.706 268.246 211.747 267.183 214.474 267.183C220.188 267.183 222.206 271.165 222.206 275.433ZM219.424 278.379H217.624C213.697 278.379 210.056 278.76 210.056 282.061C210.056 284.542 211.678 285.606 213.778 285.606C216.519 285.606 219.424 283.042 219.424 281.12V278.379Z" fill="white"></path><path d="M229.256 281.379C229.256 284.161 230.279 285.142 233.238 285.142H234.438C235.202 285.142 235.72 285.742 235.72 286.383C235.72 287.065 235.202 287.665 234.438 287.665H233.238C228.833 287.665 226.488 285.783 226.488 281.379V258.851C226.488 258.251 227.211 257.828 227.851 257.828C228.533 257.828 229.256 258.251 229.256 258.851V267.442H234.765C235.324 267.442 235.747 268.001 235.747 268.601C235.747 269.201 235.324 269.76 234.765 269.76H229.256V281.379Z" fill="white"></path><path d="M241.611 259.655C241.611 260.596 240.793 261.455 239.77 261.455C238.707 261.455 237.847 260.596 237.847 259.655C237.847 258.714 238.707 257.896 239.77 257.896C240.793 257.91 241.611 258.714 241.611 259.655ZM241.175 268.465V286.547C241.175 287.106 240.534 287.665 239.77 287.665C239.007 287.665 238.407 287.106 238.407 286.547V268.465C238.407 267.865 239.007 267.442 239.77 267.442C240.534 267.442 241.175 267.865 241.175 268.465Z" fill="white"></path><path d="M261.139 275.174V279.838C261.139 284.065 257.334 287.965 252.971 287.965C248.648 287.965 244.884 284.12 244.884 279.838V275.174C244.884 270.892 248.511 267.183 252.971 267.183C257.334 267.183 261.139 270.769 261.139 275.174ZM258.357 275.174C258.357 272.433 255.957 269.747 252.971 269.747C249.984 269.747 247.666 272.447 247.666 275.174V279.838C247.666 282.701 250.011 285.402 252.971 285.402C255.957 285.402 258.357 282.701 258.357 279.838V275.174Z" fill="white"></path><path d="M267.644 286.547C267.644 287.106 267.003 287.665 266.239 287.665C265.421 287.665 264.875 287.106 264.875 286.547V268.465C264.875 267.865 265.434 267.442 266.239 267.442C266.921 267.442 267.521 267.865 267.521 268.465V270.428C268.421 268.765 270.384 267.183 273.248 267.183C277.353 267.183 280.858 270.769 280.858 275.174V286.547C280.858 287.27 280.135 287.665 279.453 287.665C278.812 287.665 278.089 287.283 278.089 286.547V275.174C278.089 272.433 275.689 269.747 272.744 269.747C270.221 269.747 267.657 271.751 267.657 275.174V286.547H267.644Z" fill="white"></path><path d="M371.27 136.297L370.561 134.742C387.88 126.738 409.194 130.924 410.094 131.115L409.753 132.792C409.535 132.738 388.071 128.524 371.27 136.297Z" fill="#F5DD93"></path><path d="M371.12 135.383L369.525 134.783C379.016 109.596 400.944 87.8319 401.162 87.6137L402.362 88.8274C402.144 89.0319 380.475 110.551 371.12 135.383Z" fill="#F5DD93"></path><path d="M371.161 136.106L369.661 135.288C383.598 109.883 424.276 97.7731 424.686 97.664L425.163 99.3005C424.754 99.4096 384.757 111.314 371.161 136.106Z" fill="#F5DD93"></path><path d="M369.566 135.465C325.805 75.4634 262.053 85.8546 223.966 92.073C220.093 92.7003 216.534 93.2867 213.316 93.7367L213.084 92.0458C216.288 91.5957 219.848 91.023 223.707 90.3957C262.19 84.1228 326.583 73.6088 370.97 134.47L369.566 135.465Z" fill="#F5DD93"></path><path d="M376.22 200.376C365.72 157.939 369.497 138.82 369.661 138.029L371.338 138.37C371.297 138.561 367.493 157.966 377.884 199.954L376.22 200.376Z" fill="#F5DD93"></path><path d="M373.629 200.785C374.066 202.681 375.961 203.867 377.857 203.431C379.752 202.995 380.939 201.099 380.502 199.203C380.066 197.308 378.17 196.122 376.275 196.558C374.379 196.994 373.193 198.89 373.629 200.785Z" fill="#F5DD93"></path><path d="M369.402 135.397C363.552 86.3865 376.207 52.4036 376.33 52.0763L377.925 52.69C377.803 53.0172 365.298 86.6319 371.093 135.206L369.402 135.397Z" fill="#F5DD93"></path><path d="M370.574 137.061L370.056 136.543C361.11 127.488 327.059 99.3414 264.412 117.519L263.935 115.883C270.658 113.933 288.508 109.46 309.113 110.224C334.532 111.151 355.274 119.428 370.765 134.838C373.888 132.765 388.548 124.065 412.876 125.347L412.78 127.051C386.448 125.701 371.311 136.529 371.161 136.638L370.574 137.061Z" fill="#F5DD93"></path><path d="M265.394 120.015C263.526 120.588 261.562 119.537 260.99 117.669C260.417 115.801 261.467 113.837 263.335 113.265C265.203 112.692 267.167 113.742 267.74 115.61C268.299 117.478 267.263 119.456 265.394 120.015Z" fill="#F5DD93"></path><path d="M412.549 129.833C414.499 129.901 416.121 128.374 416.19 126.424C416.258 124.474 414.73 122.851 412.78 122.783C410.83 122.715 409.208 124.242 409.139 126.192C409.071 128.142 410.599 129.779 412.549 129.833Z" fill="#F5DD93"></path><path d="M338.187 249.919L336.483 249.769C342.428 183.412 364.206 142.406 368.529 134.838C349.533 135.643 311.841 182.498 304.313 192.099L302.977 191.049C313.955 177.057 351.224 131.497 370.084 133.174L371.475 133.297L370.738 134.483C370.479 134.879 344.719 176.948 338.187 249.919Z" fill="#A6C9AC"></path><path d="M306.563 193.64C305.35 195.167 303.127 195.412 301.613 194.212C300.086 192.999 299.84 190.776 301.04 189.262C302.254 187.735 304.477 187.49 305.99 188.69C307.504 189.89 307.777 192.126 306.563 193.64Z" fill="#A6C9AC"></path><path d="M394.78 186.126C390.402 181.244 375.579 163.107 368.556 134.688L370.206 134.279C377.134 162.316 391.739 180.18 396.048 184.994L394.78 186.126Z" fill="#F5DD93"></path><path d="M397.862 182.962C399.212 184.367 399.157 186.603 397.753 187.953C396.348 189.303 394.112 189.249 392.762 187.844C391.412 186.439 391.466 184.203 392.871 182.853C394.289 181.503 396.512 181.557 397.862 182.962Z" fill="#F5DD93"></path><path d="M370.207 136.038C367.261 105.819 390.975 77.8908 391.221 77.6044L392.516 78.7226C392.285 78.9954 369.034 106.392 371.911 135.874L370.207 136.038Z" fill="#F5DD93"></path><path d="M328.969 251.787L327.278 251.582C327.387 250.723 338.133 165.289 369.415 135.397L370.588 136.624C339.755 166.093 329.078 250.928 328.969 251.787Z" fill="#F5DD93"></path><path d="M367.438 222.713C359.761 171.916 369.375 136.079 369.47 135.711L371.12 136.161C371.025 136.515 361.506 172.025 369.129 222.441L367.438 222.713Z" fill="#F5DD93"></path><path d="M308.8 174.944L307.654 173.675C309.332 172.162 349.028 136.611 370.82 135.874L370.874 137.579C349.724 138.302 309.209 174.589 308.8 174.944Z" fill="#F5DD93"></path><path d="M370.752 136.324L369.497 135.179C383.448 119.906 398.503 113.292 408.662 110.442C419.708 107.346 427.345 107.851 427.672 107.892L427.549 109.596C427.249 109.569 396.88 107.714 370.752 136.324Z" fill="#F5DD93"></path><path d="M313.832 225.427L312.209 224.895C312.387 224.35 330.415 169.871 370.657 135.111L371.775 136.406C331.901 170.839 314.01 224.882 313.832 225.427Z" fill="#F5DD93"></path><path d="M396.935 173.185C395.939 172.544 372.538 157.229 370.07 136.774C365.297 97.1186 384.716 69.4632 384.907 69.1905L386.298 70.186C386.107 70.4587 367.07 97.6095 371.761 136.583C374.12 156.234 397.616 171.616 397.848 171.766L396.935 173.185Z" fill="#A6C9AC"></path><path d="M306.809 165.971C306.714 165.971 306.632 165.957 306.55 165.93L306.959 164.28L306.755 165.112L306.632 164.28C307.096 164.13 309.387 162.534 311.8 160.843C323.964 152.361 352.424 132.52 370.616 135.411L370.343 137.102C352.861 134.265 324.769 153.875 312.769 162.248C308.296 165.371 307.396 165.971 306.809 165.971Z" fill="#F5DD93"></path><path d="M369.702 138.52C332.228 44.0579 295.723 19.4299 285.427 14.1388L286.204 12.6252C296.636 17.9844 333.592 42.8715 371.284 137.893L369.702 138.52Z" fill="#F5DD93"></path><path d="M284.431 16.7162C282.672 15.8843 281.922 13.7706 282.767 12.0115C283.599 10.2524 285.713 9.50234 287.472 10.3478C289.231 11.1797 289.981 13.2934 289.136 15.0525C288.29 16.8116 286.19 17.5617 284.431 16.7162Z" fill="#F5DD93"></path><path d="M370.848 139.706C324.442 48.7081 228.453 39.6669 227.484 39.5851L227.621 37.8805C228.589 37.9623 325.533 47.0853 372.361 138.929L370.848 139.706Z" fill="#A6C9AC"></path><path d="M370.193 137.279C279.372 24.38 240.248 30.6802 239.88 30.7348L239.539 29.0574C241.135 28.7438 279.795 22.1572 371.529 136.202L370.193 137.279Z" fill="#F5DD93"></path><path d="M370.152 139.884L354.183 53.6309L355.86 53.3173L370.561 132.765C379.179 110.169 407.53 95.7004 408.785 95.0731L409.548 96.6004C409.235 96.7641 377.952 112.733 371.134 136.406L370.152 139.884Z" fill="#F5DD93"></path><path d="M315.319 142.884L314.692 141.302C324.947 137.279 350.979 128.715 371.148 135.942L370.575 137.552C350.393 130.297 323.187 139.802 315.319 142.884Z" fill="#F5DD93"></path><path d="M316.505 145.338C314.691 146.061 312.646 145.175 311.923 143.361C311.2 141.547 312.087 139.502 313.9 138.779C315.714 138.056 317.759 138.943 318.482 140.756C319.191 142.57 318.305 144.629 316.505 145.338Z" fill="#F5DD93"></path><path d="M335.719 204.999L334.083 204.522C338.174 190.544 352.847 144.165 369.825 134.551L370.67 136.038C354.252 145.325 339.769 191.171 335.719 204.999Z" fill="#F5DD93"></path><path d="M338.378 205.599C337.819 207.467 335.855 208.531 333.987 207.972C332.119 207.413 331.055 205.449 331.614 203.581C332.173 201.713 334.137 200.649 336.005 201.208C337.873 201.767 338.937 203.731 338.378 205.599Z" fill="#F5DD93"></path><path d="M371.516 144.356C363.361 117.696 318.21 85.6637 304.573 76.4725L305.527 75.0543C319.287 84.3137 364.834 116.646 373.152 143.852L371.516 144.356Z" fill="#F5DD93"></path><path d="M303.182 78.8317C301.573 77.7271 301.164 75.5316 302.255 73.9225C303.359 72.3133 305.555 71.9042 307.164 72.9952C308.773 74.0997 309.182 76.2953 308.091 77.9044C306.987 79.5135 304.791 79.9226 303.182 78.8317Z" fill="#F5DD93"></path><path d="M369.32 136.624C346.206 88.2138 261.031 71.4269 260.185 71.2633L260.513 69.586C261.372 69.7496 347.379 86.7001 370.875 135.888L369.32 136.624Z" fill="#F5DD93"></path><path d="M325.11 175.748L323.855 174.589C330.578 167.321 353.761 143.006 369.743 135.179L370.493 136.706C354.783 144.411 331.792 168.534 325.11 175.748Z" fill="#F5DD93"></path><path d="M327.223 177.439C325.901 178.871 323.664 178.953 322.232 177.63C320.8 176.307 320.719 174.071 322.041 172.639C323.364 171.207 325.601 171.125 327.032 172.448C328.464 173.771 328.546 176.007 327.223 177.439Z" fill="#F5DD93"></path><path d="M297.209 146.334L296.404 144.834C296.759 144.643 332.105 125.988 368.474 134.442L368.093 136.106C332.337 127.788 297.563 146.143 297.209 146.334Z" fill="#A6C9AC"></path><path d="M394.125 160.393C393.198 159.739 371.352 144.247 369.293 135.22L370.956 134.838C372.866 143.225 394.889 158.839 395.107 158.989L394.125 160.393Z" fill="#F5DD93"></path><path d="M394.726 151.884C394.18 151.761 381.266 148.829 369.307 135.97L370.561 134.811C382.139 147.247 394.971 150.193 395.094 150.22L394.726 151.884Z" fill="#F5DD93"></path><path d="M397.998 144.916C397.862 144.82 384.143 135.67 370.138 135.888L370.097 134.183C384.661 133.842 398.38 143.115 398.966 143.511L397.998 144.916Z" fill="#F5DD93"></path><path d="M394.221 163.721C393.171 163.175 368.475 150.084 369.634 136.583L371.339 136.733C370.275 149.102 394.767 162.084 395.012 162.207L394.221 163.721Z" fill="#F5DD93"></path><path d="M369.402 139.856L368.924 136.87C368.87 136.556 363.77 105.683 346.765 75.6407C331.123 48.0126 301.9 15.4207 251.539 17.1253L251.485 15.4207C302.786 13.7025 332.405 46.7853 348.278 74.8498C362.611 100.187 368.556 126.097 370.152 134.102C374.188 126.738 389.516 103.719 428.204 92.264L428.694 93.9003C383.27 107.36 370.697 136.774 370.575 137.074L369.402 139.856Z" fill="#A6C9AC"></path><path d="M427.249 89.8229C429.117 89.2502 431.081 90.3002 431.654 92.1684C432.226 94.0367 431.176 96.0004 429.308 96.5731C427.44 97.1459 425.476 96.0958 424.904 94.2276C424.344 92.3594 425.381 90.3957 427.249 89.8229Z" fill="#A6C9AC"></path><path d="M369.552 136.038C358.807 112.051 331.615 95.8641 288.7 87.9275C254.54 81.6136 220.612 82.7318 211.039 83.2228L210.957 81.5182C233.171 80.3727 345.265 77.6044 371.121 135.329L369.552 136.038Z" fill="white"></path><path d="M211.365 85.9092C209.415 86.0183 207.752 84.5183 207.656 82.5818C207.561 80.6454 209.047 78.9681 210.984 78.8726C212.934 78.7635 214.597 80.2636 214.693 82.2C214.802 84.1501 213.315 85.8138 211.365 85.9092Z" fill="white"></path><path d="M369.129 135.738C322.573 101.864 274.095 121.556 273.604 121.76L272.949 120.192C273.44 119.987 322.778 99.9278 370.139 134.374L369.129 135.738Z" fill="white"></path><path d="M397.576 181.598C397.412 181.462 381.252 167.471 369.525 138.138L371.107 137.511C382.671 166.421 398.53 180.167 398.68 180.303L397.576 181.598Z" fill="white"></path><path d="M356.625 239.868L354.92 239.855C355.029 218.227 356.447 146.852 369.893 136.365L370.943 137.715C357.77 147.997 356.706 224.622 356.625 239.868Z" fill="white"></path><path d="M359.324 239.718C359.297 241.668 357.702 243.223 355.752 243.209C353.802 243.182 352.247 241.587 352.261 239.636C352.288 237.686 353.883 236.132 355.833 236.145C357.783 236.173 359.352 237.768 359.324 239.718Z" fill="white"></path><path d="M369.224 135.547C324.687 88.3501 285.249 68.8768 260.021 60.8448C232.707 52.1581 215.688 54.6537 215.524 54.6673L215.265 52.9764C215.947 52.8673 284.581 43.3488 370.479 134.361L369.224 135.547Z" fill="white"></path><path d="M379.943 178.176C379.479 176.948 368.597 147.984 369.484 136.42C371.216 113.933 384.566 97.6504 388.616 93.1911L389.884 94.3366C385.93 98.6867 372.866 114.601 371.188 136.542C370.329 147.725 381.43 177.262 381.539 177.562L379.943 178.176Z" fill="white"></path><path d="M386.638 91.432C388.016 90.0547 390.252 90.0547 391.63 91.432C393.007 92.8093 393.007 95.0458 391.63 96.4231C390.252 97.8004 388.016 97.8004 386.638 96.4231C385.261 95.0458 385.261 92.8093 386.638 91.432Z" fill="white"></path><path d="M342.647 152.893L341.61 151.543C342.415 150.929 361.479 136.406 370.82 134.033L371.243 135.683C362.243 137.961 342.851 152.743 342.647 152.893Z" fill="white"></path><path d="M310.082 208.995L308.596 208.163C308.828 207.74 332.678 165.684 369.225 136.079L370.302 137.402C334.015 166.789 310.314 208.572 310.082 208.995Z" fill="white"></path><path d="M368.993 135.247C353.843 99.8187 327.728 52.9082 289.395 30.6802C266.526 17.4117 249.917 19.2935 249.753 19.3208L249.535 17.6298C250.23 17.5344 266.758 15.6252 290.104 29.1256C311.528 41.5078 342.865 69.8451 370.561 134.579L368.993 135.247Z" fill="white"></path><path d="M396.839 149.088C388.139 143.579 373.288 135.288 370.506 136.474L369.838 134.906C374.256 133.011 393.866 145.188 397.753 147.656L396.839 149.088Z" fill="white"></path><path d="M304.641 156.452L303.509 155.184C303.782 154.938 331.028 131.074 369.511 134.974L369.334 136.665C331.587 132.861 304.914 156.22 304.641 156.452Z" fill="#EDC31B"></path><path d="M322.028 247.123L320.337 246.959C326.364 186.262 363.375 142.147 368.979 135.792C363.497 132.683 332.856 117.042 295.204 132.438L294.563 130.856C336.797 113.592 370.438 134.647 370.766 134.865L371.625 135.411L370.929 136.161C370.507 136.611 328.465 182.348 322.028 247.123Z" fill="#EDC31B"></path><path d="M369.607 134.102L367.889 132.411C367.33 131.865 311.187 77.8908 226.775 114.301L226.094 112.733C270.754 93.464 307.246 99.4914 329.978 107.946C349.779 115.31 362.911 125.756 367.37 129.642L356.366 31.0757L358.057 30.8848L369.607 134.102Z" fill="#EDC31B"></path><path d="M369.825 135.533C369.293 134.388 315.714 20.63 238.734 35.5486L238.407 33.8713C316.696 18.7072 370.834 133.665 371.366 134.824L369.825 135.533Z" fill="#EDC31B"></path><path d="M239.403 38.235C237.493 38.5895 235.639 37.335 235.284 35.4122C234.93 33.503 236.184 31.6484 238.107 31.2939C240.016 30.9393 241.871 32.1939 242.225 34.1167C242.58 36.0394 241.325 37.8804 239.403 38.235Z" fill="#EDC31B"></path><path d="M371.693 135.683L370.097 135.07C381.607 105.423 405.635 93.723 405.866 93.614L406.603 95.1549C406.371 95.2504 382.943 106.692 371.693 135.683Z" fill="#EDC31B"></path><path d="M370.329 137.374L368.461 131.142C367.343 127.269 339.906 37.5122 212.225 60.2038L211.925 58.5265C324.878 38.4532 360.361 105.642 368.257 125.442L365.338 32.1666L367.043 32.1121L370.329 137.374Z" fill="#EDC31B"></path><path d="M362.666 32.4257C362.611 30.4757 364.138 28.8529 366.075 28.7847C368.025 28.7302 369.648 30.2575 369.716 32.1939C369.771 34.144 368.243 35.7668 366.307 35.8349C364.357 35.9031 362.72 34.3758 362.666 32.4257Z" fill="#EDC31B"></path><path d="M369.361 136.297C338.692 85.7865 218.92 101.673 217.72 101.851L217.489 100.16C218.702 99.9824 339.579 83.9591 370.82 135.411L369.361 136.297Z" fill="#EDC31B"></path><path d="M370.943 136.352L369.879 135.015C400.208 110.742 425.586 112.651 425.831 112.665L425.681 114.369C425.449 114.355 400.712 112.542 370.943 136.352Z" fill="#EDC31B"></path><path d="M369.457 134.988C361.398 106.555 331.574 71.7406 285.468 36.9532C284.363 36.1213 283.641 35.5758 283.368 35.344L284.472 34.0349C284.732 34.2531 285.427 34.7849 286.504 35.5895C332.897 70.5951 362.938 105.737 371.093 134.524L369.457 134.988Z" fill="#EDC31B"></path><path d="M373.397 215.745C373.261 215.336 359.815 174.275 369.347 135.792L370.997 136.202C361.588 174.207 374.87 214.79 375.007 215.199L373.397 215.745Z" fill="#EDC31B"></path><path d="M368.761 137.838C355.656 77.5362 335.951 47.3308 330.224 39.5033L331.601 38.4942C337.383 46.3898 357.252 76.8407 370.425 137.47L368.761 137.838Z" fill="#EDC31B"></path><path d="M328.123 41.2896C326.964 39.7214 327.305 37.5123 328.873 36.3531C330.442 35.194 332.651 35.5349 333.81 37.1031C334.969 38.6714 334.628 40.8805 333.06 42.0397C331.478 43.1851 329.269 42.8579 328.123 41.2896Z" fill="#EDC31B"></path></svg> 